<svg width="16" height="16" viewBox="0 0 16 16" fill="none" xmlns="http://www.w3.org/2000/svg">
<path d="M5.73438 2.5C5.15104 2.5 4.60938 2.64583 4.10938 2.9375C3.61979 3.22917 3.22917 3.625 2.9375 4.125C2.64583 4.61458 2.5 5.15104 2.5 5.73438V10.2656C2.5 10.849 2.64583 11.3906 2.9375 11.8906C3.22917 12.3802 3.61979 12.7708 4.10938 13.0625C4.60938 13.3542 5.15104 13.5 5.73438 13.5H10.2656C10.849 13.5 11.3854 13.3542 11.875 13.0625C12.375 12.7708 12.7708 12.3802 13.0625 11.8906C13.3542 11.3906 13.5 10.849 13.5 10.2656V5.73438C13.5 5.15104 13.3542 4.61458 13.0625 4.125C12.7708 3.625 12.375 3.22917 11.875 2.9375C11.3854 2.64583 10.849 2.5 10.2656 2.5H5.73438ZM5.73438 3.5H10.2656C10.6719 3.5 11.0469 3.59896 11.3906 3.79688C11.7344 3.99479 12.0052 4.26562 12.2031 4.60938C12.401 4.95312 12.5 5.32812 12.5 5.73438V10.2656C12.5 10.6719 12.401 11.0469 12.2031 11.3906C12.0052 11.7344 11.7344 12.0052 11.3906 12.2031C11.0469 12.401 10.6719 12.5 10.2656 12.5H5.73438C5.32812 12.5 4.95312 12.401 4.60938 12.2031C4.26562 12.0052 3.99479 11.7344 3.79688 11.3906C3.59896 11.0469 3.5 10.6719 3.5 10.2656V5.73438C3.5 5.32812 3.59896 4.95312 3.79688 4.60938C3.99479 4.26562 4.26562 3.99479 4.60938 3.79688C4.95312 3.59896 5.32812 3.5 5.73438 3.5ZM10.9531 4.59375C10.8281 4.59375 10.7188 4.64062 10.625 4.73438C10.5417 4.81771 10.5 4.92188 10.5 5.04688C10.5 5.17188 10.5417 5.28125 10.625 5.375C10.7188 5.45833 10.8281 5.5 10.9531 5.5C11.0781 5.5 11.1823 5.45833 11.2656 5.375C11.3594 5.28125 11.4062 5.17188 11.4062 5.04688C11.4062 4.92188 11.3594 4.81771 11.2656 4.73438C11.1823 4.64062 11.0781 4.59375 10.9531 4.59375ZM8 5C7.45833 5 6.95833 5.13542 6.5 5.40625C6.04167 5.67708 5.67708 6.04167 5.40625 6.5C5.13542 6.95833 5 7.45833 5 8C5 8.54167 5.13542 9.04167 5.40625 9.5C5.67708 9.95833 6.04167 10.3229 6.5 10.5938C6.95833 10.8646 7.45833 11 8 11C8.54167 11 9.04167 10.8646 9.5 10.5938C9.95833 10.3229 10.3229 9.95833 10.5938 9.5C10.8646 9.04167 11 8.54167 11 8C11 7.45833 10.8646 6.95833 10.5938 6.5C10.3229 6.04167 9.95833 5.67708 9.5 5.40625C9.04167 5.13542 8.54167 5 8 5ZM8 6C8.36458 6 8.69792 6.08854 9 6.26562C9.3125 6.44271 9.55729 6.6875 9.73438 7C9.91146 7.30208 10 7.63542 10 8C10 8.36458 9.91146 8.70312 9.73438 9.01562C9.55729 9.31771 9.3125 9.55729 9 9.73438C8.69792 9.91146 8.36458 10 8 10C7.63542 10 7.29688 9.91146 6.98438 9.73438C6.68229 9.55729 6.44271 9.31771 6.26562 9.01562C6.08854 8.70312 6 8.36458 6 8C6 7.63542 6.08854 7.30208 6.26562 7C6.44271 6.6875 6.68229 6.44271 6.98438 6.26562C7.29688 6.08854 7.63542 6 8 6Z" fill="#666666"/>
</svg>
