<svg width="16" height="16" viewBox="0 0 16 16" fill="none" xmlns="http://www.w3.org/2000/svg">
<path d="M8.04688 2C7.18229 2 6.36458 2.18229 5.59375 2.54688C4.82292 2.91146 4.20833 3.41667 3.75 4.0625C3.25 4.76042 3 5.55208 3 6.4375C3 6.97917 3.09375 7.46875 3.28125 7.90625C3.4375 8.29167 3.64583 8.60417 3.90625 8.84375C4.13542 9.05208 4.35938 9.15625 4.57812 9.15625C4.68229 9.15625 4.77604 9.03646 4.85938 8.79688C4.92188 8.59896 4.95312 8.42708 4.95312 8.28125C4.95312 8.22917 4.90625 8.125 4.8125 7.96875C4.67708 7.75 4.58333 7.56771 4.53125 7.42188C4.42708 7.16146 4.375 6.89062 4.375 6.60938C4.375 5.95312 4.52604 5.36979 4.82812 4.85938C5.13021 4.33854 5.54688 3.93229 6.07812 3.64062C6.60938 3.34896 7.19792 3.20312 7.84375 3.20312C8.71875 3.20312 9.41667 3.4375 9.9375 3.90625C10.5 4.39583 10.7812 5.06771 10.7812 5.92188C10.7812 6.44271 10.7135 6.96354 10.5781 7.48438C10.4219 8.13021 10.1875 8.64062 9.875 9.01562C9.51042 9.47396 9.06771 9.70312 8.54688 9.70312C8.23438 9.70312 7.96354 9.60417 7.73438 9.40625C7.51562 9.19792 7.40625 8.9375 7.40625 8.625C7.40625 8.41667 7.4375 8.18229 7.5 7.92188C7.53125 7.77604 7.59375 7.54688 7.6875 7.23438C7.79167 6.92188 7.86458 6.6875 7.90625 6.53125C7.96875 6.27083 8 6.03125 8 5.8125C8 5.42708 7.88021 5.13542 7.64062 4.9375C7.43229 4.77083 7.17188 4.71875 6.85938 4.78125C6.55729 4.84375 6.29688 5.01042 6.07812 5.28125C5.84896 5.59375 5.73438 5.98438 5.73438 6.45312C5.73438 6.96354 5.8125 7.38021 5.96875 7.70312L5.79688 8.4375C5.54688 9.46875 5.36979 10.2552 5.26562 10.7969C5.08854 11.724 5 12.4688 5 13.0312C5 13.2604 5.02604 13.6094 5.07812 14.0781L5.10938 14.4219L5.14062 14.4688C5.16146 14.4896 5.17188 14.5 5.17188 14.5C5.18229 14.5 5.20312 14.4948 5.23438 14.4844L5.28125 14.4688C5.60417 14.0312 5.84896 13.6458 6.01562 13.3125C6.18229 13.0104 6.31771 12.6875 6.42188 12.3438C6.48438 12.125 6.57812 11.7552 6.70312 11.2344C6.80729 10.7448 6.90104 10.3438 6.98438 10.0312C7.11979 10.3125 7.36458 10.5365 7.71875 10.7031C8.03125 10.849 8.35417 10.9219 8.6875 10.9219C9.52083 10.9219 10.2396 10.6719 10.8438 10.1719C11.3854 9.73438 11.8021 9.125 12.0938 8.34375C12.3646 7.63542 12.5 6.88021 12.5 6.07812C12.5 5.27604 12.2865 4.55729 11.8594 3.92188C11.4635 3.31771 10.9219 2.84896 10.2344 2.51562C9.55729 2.17188 8.82812 2 8.04688 2Z" fill="#666666"/>
</svg>
