<svg width="32" height="32" viewBox="0 0 32 32" fill="none" xmlns="http://www.w3.org/2000/svg">
<rect width="32" height="32" rx="4.92308" fill="#F7F7F7"/>
<path fill-rule="evenodd" clip-rule="evenodd" d="M16 8C18.1217 8 20.1566 8.84285 21.6569 10.3431C23.1571 11.8434 24 13.8783 24 16C24 20.4183 20.4183 24 16 24C11.576 24 8 20.4 8 16C8 11.5817 11.5817 8 16 8ZM16 22.4C19.5346 22.4 22.4 19.5346 22.4 16C22.4 12.4654 19.5346 9.6 16 9.6C12.4654 9.6 9.6 12.4654 9.6 16C9.6 19.5346 12.4654 22.4 16 22.4ZM16.4 16.2V12H15.2V16.8L19.4 19.32L20 18.336L16.4 16.2Z" fill="black"/>
</svg>
