<svg width="39" height="24" viewBox="0 0 39 24" fill="none" xmlns="http://www.w3.org/2000/svg">
<path fill-rule="evenodd" clip-rule="evenodd" d="M0 4.896C0 2.19201 2.19201 0 4.896 0H33.104C35.808 0 38 2.19201 38 4.896V19.104C38 21.808 35.808 24 33.104 24H4.896C2.19201 24 0 21.808 0 19.104V4.896Z" fill="#2D2D2D"/>
<path d="M22.1264 12C22.1264 14.5892 20.9006 16.8976 18.9971 18.387C20.4301 19.5061 22.2065 20.1275 24.0505 20.1275C28.5594 20.1275 32.2277 16.4815 32.2277 12C32.2277 7.51855 28.5594 3.87256 24.0505 3.87256C22.2065 3.87256 20.4301 4.49398 18.9999 5.61079C20.9005 7.10242 22.1264 9.41092 22.1264 12Z" fill="#FFCD00"/>
<path d="M22.1269 12C22.1269 9.41092 20.901 7.10242 18.9975 5.61308C17.6062 4.52448 15.8536 3.87256 13.9497 3.87256C9.44076 3.87256 5.77246 7.51855 5.77246 12C5.77246 16.4815 9.44076 20.1275 13.9497 20.1275C15.8536 20.1275 17.6062 19.4756 18.9975 18.387C20.9011 16.8976 22.1269 14.5892 22.1269 12Z" fill="#FF5023"/>
</svg>
