<svg width="16" height="16" viewBox="0 0 16 16" fill="none" xmlns="http://www.w3.org/2000/svg">
<path fill-rule="evenodd" clip-rule="evenodd" d="M9.128 3H5.6V4.61538H8.472L10.072 6.23077H3.6C1.6 6.23077 0 7.84615 0 9.86538C0 11.8846 1.6 13.5 3.6 13.5C5.376 13.5 6.848 12.1915 7.136 10.4873L8.832 9.46154C8.8 9.59885 8.8 9.72808 8.8 9.86538C8.8 11.8846 10.4 13.5 12.4 13.5C14.4 13.5 16 11.8846 16 9.86538C16 7.84615 14.4 6.23077 12.4 6.23077H12.336L9.128 3ZM5.472 10.4792C5.2 11.295 4.464 11.8846 3.576 11.8846C2.472 11.8846 1.576 10.98 1.576 9.86538C1.576 8.75077 2.472 7.84615 3.576 7.84615C4.472 7.84615 5.2 8.44385 5.472 9.25962H3.2V10.4712L5.472 10.4792ZM10.376 9.86538C10.376 10.98 11.272 11.8846 12.376 11.8846C13.4806 11.8846 14.376 10.9806 14.376 9.86538C14.376 8.75019 13.4806 7.84615 12.376 7.84615C11.272 7.84615 10.376 8.75077 10.376 9.86538Z" fill="#A3A3A4"/>
</svg>
