<svg width="16" height="16" viewBox="0 0 16 16" fill="none" xmlns="http://www.w3.org/2000/svg">
    <path d="M3.75 8.00011C3.75 7.20739 3.9684 6.4648 4.34784 5.82896V3.13184H1.65072C0.580249 4.52208 0 6.21643 0 8.00011C0 9.7838 0.580249 11.4781 1.65072 12.8684H4.34784V10.1713C3.9684 9.53542 3.75 8.79283 3.75 8.00011Z" fill="#FBBD00"/>
    <path d="M8 12.25L6.125 14.125L8 16C9.78372 16 11.478 15.4197 12.8683 14.3493V11.655H10.174C9.53263 12.0358 8.78691 12.25 8 12.25Z" fill="#0F9D58"/>
    <path d="M4.34753 10.1711L1.65039 12.8683C1.86233 13.1435 2.09311 13.4071 2.34283 13.6569C3.85384 15.1678 5.86281 16 7.99969 16V12.25C6.44894 12.25 5.08978 11.415 4.34753 10.1711Z" fill="#31AA52"/>
    <path d="M16 8.00012C16 7.51341 15.9559 7.02578 15.869 6.55085L15.7987 6.1665H8V9.91649H11.7954C11.4268 10.6496 10.8601 11.2478 10.174 11.6552L12.8682 14.3494C13.1435 14.1375 13.4071 13.9067 13.6568 13.657C15.1678 12.146 16 10.137 16 8.00012Z" fill="#3C79E6"/>
    <path d="M11.0052 4.99479L11.3367 5.32623L13.9883 2.6746L13.6569 2.34316C12.1459 0.832159 10.1369 0 8.00001 0L6.125 1.875L8.00001 3.75001C9.1352 3.75001 10.2025 4.19207 11.0052 4.99479Z" fill="#CF2D48"/>
    <path d="M8.00003 3.75001V0C5.86314 0 3.85415 0.832158 2.34311 2.34313C2.09339 2.59285 1.8626 2.85644 1.65067 3.13172L4.34781 5.82885C5.0901 4.58501 6.44927 3.75001 8.00003 3.75001Z" fill="#EB4132"/>
</svg>
