<svg width="48" height="48" viewBox="0 0 48 48" fill="none" xmlns="http://www.w3.org/2000/svg">
<path fill-rule="evenodd" clip-rule="evenodd" d="M0 9C0 4.02944 4.02944 0 9 0H39C43.9706 0 48 4.02944 48 9V39C48 43.9706 43.9706 48 39 48H9C4.02944 48 0 43.9706 0 39V9Z" fill="#FACD5D"/>
<path fill-rule="evenodd" clip-rule="evenodd" d="M12 15.4444C12 14.1 13.1242 13 14.5263 13H32.2105C33.6058 13 34.7368 14.0944 34.7368 15.4444V18.2311C35.4821 18.6589 36 19.4289 36 20.3333V27.6667C36 28.5711 35.4821 29.3411 34.7368 29.7689V32.5556C34.7368 33.9056 33.6058 35 32.2105 35H14.5263C13.1311 35 12 33.9056 12 32.5556V15.4444ZM32.2105 15.4444H14.5263V32.5556H32.2105V30.1111H24.6316C23.2363 30.1111 22.1053 29.0167 22.1053 27.6667V20.3333C22.1053 18.9833 23.2363 17.8889 24.6316 17.8889H32.2105V15.4444ZM24.6316 20.3333H33.4737V27.6667H24.6316V20.3333ZM26.5263 24C26.5263 22.9875 27.3746 22.1667 28.4211 22.1667C29.4675 22.1667 30.3158 22.9875 30.3158 24C30.3158 25.0125 29.4675 25.8333 28.4211 25.8333C27.3746 25.8333 26.5263 25.0125 26.5263 24Z" fill="white"/>
</svg>
