<svg width="12" height="12" viewBox="0 0 12 12" fill="none" xmlns="http://www.w3.org/2000/svg">
<path fill-rule="evenodd" clip-rule="evenodd" d="M11.56 0.02L11.6667 0C11.8508 0 12 0.149238 12 0.333333V10.4133C12 10.5667 11.9 10.6867 11.76 10.7333L8 12L4 10.6L0.44 11.98L0.333333 12C0.149238 12 0 11.8508 0 11.6667V1.58667C0 1.43333 0.1 1.31333 0.24 1.26667L4 0L8 1.4L11.56 0.02ZM7.33333 2.58L4.66667 1.64667V9.42L7.33333 10.3533V2.58ZM1.33333 2.30667L3.33333 1.63333V9.43333L1.33333 10.2067V2.30667ZM8.66667 10.3667L10.6667 9.69333V1.8L8.66667 2.57333V10.3667Z" fill="black"/>
</svg>
