<svg width="64" height="64" viewBox="0 0 64 64" fill="none" xmlns="http://www.w3.org/2000/svg">
<rect width="64" height="64" rx="16" fill="#503E9D" fill-opacity="0.1"/>
<path fill-rule="evenodd" clip-rule="evenodd" d="M38 26C38 22.6863 35.3137 20 32 20C28.6863 20 26 22.6863 26 26C26 29.3137 28.6863 32 32 32C35.3137 32 38 29.3137 38 26ZM29 26C29 24.3431 30.3431 23 32 23C33.6569 23 35 24.3431 35 26C35 27.6569 33.6569 29 32 29C30.3431 29 29 27.6569 29 26ZM32 33.5C36.005 33.5 44 35.495 44 39.5V44H20V39.5C20 35.495 27.995 33.5 32 33.5ZM22.85 39.5C22.85 38.54 27.545 36.35 32 36.35C36.455 36.35 41.15 38.54 41.15 39.5V41.15H22.85V39.5Z" fill="#503E9D"/>
</svg>
