<svg width="64" height="64" viewBox="0 0 64 64" fill="none" xmlns="http://www.w3.org/2000/svg">
<rect width="64" height="64" rx="16" fill="#503E9D" fill-opacity="0.1"/>
<path fill-rule="evenodd" clip-rule="evenodd" d="M44 44V39.2L34.088 29.288C34.292 28.628 34.4 27.932 34.4 27.2C34.4 23.2235 31.1764 20 27.2 20C23.2235 20 20 23.2235 20 27.2C20 31.1764 23.2235 34.4 27.2 34.4C27.932 34.4 28.628 34.292 29.288 34.088L32 36.8H35.6V40.4H39.2V44H44ZM23.6 26C23.6 24.6745 24.6745 23.6 26 23.6C27.3255 23.6 28.4 24.6745 28.4 26C28.4 27.3255 27.3255 28.4 26 28.4C24.6745 28.4 23.6 27.3255 23.6 26Z" fill="#503E9D"/>
</svg>
