<svg width="48" height="48" viewBox="0 0 48 48" fill="none" xmlns="http://www.w3.org/2000/svg">
<path fill-rule="evenodd" clip-rule="evenodd" d="M0 9C0 4.02944 4.02944 0 9 0H39C43.9706 0 48 4.02944 48 9V39C48 43.9706 43.9706 48 39 48H9C4.02944 48 0 43.9706 0 39V9Z" fill="#503E9D"/>
<path fill-rule="evenodd" clip-rule="evenodd" d="M13.3333 14H34.6667V16.625H13.3333V14ZM36 27.125V24.5L34.6667 17.9375H13.3333L12 24.5V27.125H13.3333V35H26.6667V27.125H32V35H34.6667V27.125H36ZM24 32.375H16V27.125H24V32.375Z" fill="white"/>
</svg>
