<svg width="16" height="17" viewBox="0 0 16 17" fill="none" xmlns="http://www.w3.org/2000/svg">
<path d="M8 1.77344C6.82292 1.77344 5.72917 2.07031 4.71875 2.66406C3.73958 3.23698 2.96354 4.01302 2.39062 4.99219C1.79688 6.0026 1.5 7.09635 1.5 8.27344C1.5 9.45052 1.79688 10.5443 2.39062 11.5547C2.96354 12.5339 3.73958 13.3099 4.71875 13.8828C5.72917 14.4766 6.82292 14.7734 8 14.7734C9.17708 14.7734 10.2708 14.4766 11.2812 13.8828C12.2604 13.3099 13.0365 12.5339 13.6094 11.5547C14.2031 10.5443 14.5 9.45052 14.5 8.27344H13.5C13.5 9.27344 13.25 10.2005 12.75 11.0547C12.2604 11.8776 11.6042 12.5339 10.7812 13.0234C9.92708 13.5234 9 13.7734 8 13.7734C7 13.7734 6.07292 13.5234 5.21875 13.0234C4.39583 12.5339 3.73958 11.8776 3.25 11.0547C2.75 10.2005 2.5 9.27344 2.5 8.27344C2.5 7.27344 2.75 6.34635 3.25 5.49219C3.73958 4.66927 4.39583 4.01302 5.21875 3.52344C6.07292 3.02344 7 2.77344 8 2.77344C8.94792 2.77344 9.83854 3.0026 10.6719 3.46094C11.4635 3.89844 12.1094 4.5026 12.6094 5.27344H10V6.27344H14V2.27344H13V4.13281C12.3958 3.40365 11.6667 2.83073 10.8125 2.41406C9.92708 1.98698 8.98958 1.77344 8 1.77344Z" fill="black"/>
</svg>
