<svg width="20" height="20" viewBox="0 0 20 20" fill="none" xmlns="http://www.w3.org/2000/svg">
<path d="M12.25 0.25C10.8906 0.25 9.63281 0.59375 8.47656 1.28125C7.33594 1.9375 6.4375 2.83594 5.78125 3.97656C5.09375 5.13281 4.75 6.39062 4.75 7.75C4.75 8.64062 4.89844 9.49219 5.19531 10.3047C5.49219 11.1016 5.90625 11.8281 6.4375 12.4844L0.460938 18.4609L1.53906 19.5391L7.51562 13.5625C8.17188 14.0938 8.89844 14.5078 9.69531 14.8047C10.5078 15.1016 11.3594 15.25 12.25 15.25C13.6094 15.25 14.8672 14.9062 16.0234 14.2188C17.1641 13.5625 18.0625 12.6641 18.7188 11.5234C19.4062 10.3672 19.75 9.10938 19.75 7.75C19.75 6.39062 19.4062 5.13281 18.7188 3.97656C18.0625 2.83594 17.1641 1.9375 16.0234 1.28125C14.8672 0.59375 13.6094 0.25 12.25 0.25ZM12.25 1.75C13.3438 1.75 14.3438 2.02344 15.25 2.57031C16.1719 3.10156 16.8984 3.82812 17.4297 4.75C17.9766 5.65625 18.25 6.65625 18.25 7.75C18.25 8.84375 17.9766 9.85156 17.4297 10.7734C16.8984 11.6797 16.1719 12.4062 15.25 12.9531C14.3438 13.4844 13.3438 13.75 12.25 13.75C11.1562 13.75 10.1484 13.4844 9.22656 12.9531C8.32031 12.4062 7.59375 11.6797 7.04688 10.7734C6.51562 9.85156 6.25 8.84375 6.25 7.75C6.25 6.65625 6.51562 5.65625 7.04688 4.75C7.59375 3.82812 8.32031 3.10156 9.22656 2.57031C10.1484 2.02344 11.1562 1.75 12.25 1.75Z" fill="black"/>
</svg>
