<svg width="48" height="48" viewBox="0 0 48 48" fill="none" xmlns="http://www.w3.org/2000/svg">
<circle cx="24" cy="24" r="24" fill="#FACD5D"/>
<mask id="mask0_1897_43523" style="mask-type:luminance" maskUnits="userSpaceOnUse" x="0" y="0" width="48" height="48">
<circle cx="24" cy="24" r="24" fill="white"/>
</mask>
<g mask="url(#mask0_1897_43523)">
<path d="M16.7333 34.8L11.7333 51.1334L10.2666 54.9334C10.2666 54.9334 12.3999 57.6667 17.4666 58.7334C20.9333 59.4667 23.2666 59.5334 24.7999 59.4001C26.0666 59.2667 27.5999 59 26.7999 56.6667C25.6666 53.2 26.0666 51 26.0666 51L27.8666 41.2L16.7333 34.8V34.8Z" fill="#EA9D7D"/>
<path d="M15.9997 43.6001C17.6664 46.1334 20.5997 48.2667 22.2664 49.0667C24.5997 50.2001 26.2664 50.4667 26.2664 50.4667L27.7997 42.3334L16.8664 34.8L16.2664 35.9334L15.7997 37.8C15.5997 37.8 14.4664 41.2667 15.9997 43.6001Z" fill="url(#paint0_linear_1897_43523)"/>
<path d="M10.6661 55H10.5995C10.4745 54.9363 10.3969 54.8069 10.3995 54.6667L13.5328 45.0667C14.1328 43.0667 15.9328 36.3334 15.9328 36.3334C15.9965 36.2084 16.1259 36.1308 16.2661 36.1334C16.3911 36.1971 16.4687 36.3265 16.4661 36.4667L14.0661 45.2C13.5328 47 10.9328 54.7334 10.9328 54.7334C10.9328 54.9334 10.7995 55 10.6661 55Z" fill="#CF7653"/>
<path d="M18.6001 38.6667L18.7335 39L19.0001 38.6667H18.6001Z" fill="#A84D3B"/>
<path fill-rule="evenodd" clip-rule="evenodd" d="M18.4668 38.8L18.6001 38.2L19.1335 38.7333L18.4668 38.8ZM22.2001 41.5333V40.8L22.9334 41.2L22.2001 41.5333ZM20.4001 39.6666L20.2668 40.3333L21.0668 40.1333L20.4001 39.6666ZM19.2668 39.5999L19.4002 38.9332L20.0668 39.3999L19.2668 39.5999Z" fill="#A84D3B"/>
<path fill-rule="evenodd" clip-rule="evenodd" d="M17.8672 38.2667L18.2005 37.6L18.6672 38.2667H17.8672ZM22.8672 41.9334L23.1339 42.3334L22.6005 42.4667L22.8672 41.9334ZM22.2672 41.6L21.8672 41.1334L21.6672 41.6667L22.2672 41.6ZM24.5339 42.5333L25.0005 43.0667L24.3339 43.1333L24.5339 42.5333ZM26.9339 43.7334L26.5339 43.2667L26.3339 43.8001L26.9339 43.7334ZM23.0005 41.2L23.4672 41.4L23.0005 41.7334V41.2ZM24.4005 43.4667L24.0671 43.0667L23.8005 43.6L24.4005 43.4667ZM21.3338 40.5334L21.8005 40.7334L21.3338 41.0667V40.5334Z" fill="#A84D3B"/>
<path fill-rule="evenodd" clip-rule="evenodd" d="M17.5333 36.4667L17.2666 36.7333L17.5999 36.8667L17.5333 36.4667ZM19.4666 39.7334L19.7332 39.5334L19.8666 39.9334L19.4666 39.7334ZM25.2666 42.1333L24.6666 41.8667V42.7333L25.2666 42.1333ZM26.5999 42.4L26.0666 42.2667L26.1999 42.9334L26.5999 42.4ZM26.9332 43.4L27.3999 43.4667L27.1332 43.9333L26.9332 43.4ZM25.5999 43.2667L25.3333 42.8667L24.9999 43.3334L25.5999 43.2667ZM27.2666 44.3334L27.1999 44.8001L26.7332 44.5334L27.2666 44.3334ZM27 45.7333L27.1333 45.2667L26.6 45.4L27 45.7333ZM25.5999 45.9334L25.8666 45.7334L25.9999 46.1334L25.5999 45.9334ZM26.1333 43.1333L25.8666 43.3333L26.2 43.5333L26.1333 43.1333ZM27.2666 42.6L27.5999 42.6667L27.3333 43L27.2666 42.6ZM26.3999 46.4667L26.1332 46.7333L26.4666 46.8667L26.3999 46.4667ZM24.0666 42.6L24.2666 42.8L23.9333 42.9334L24.0666 42.6ZM22.3332 42.2667L22.4666 41.9334L22.1332 42L22.3332 42.2667ZM23.3999 42.6001L23.3333 42.8667L23.0666 42.6001H23.3999ZM24.7333 44.1334L24.8666 44.4667L25.1333 44.2L24.7333 44.1334ZM26.4 43L26.6666 42.8667L26.7333 43.2L26.4 43Z" fill="#A84D3B"/>
<path fill-rule="evenodd" clip-rule="evenodd" d="M16.6 38.8L16.4 38.6666L16.3333 38.9333L16.6 38.8ZM19.2667 39L18.8667 39.2666L19.3333 39.5333L19.2667 39ZM18.2 39.8V39.4666L18.6 39.6666L18.2 39.8ZM23.4 41.8666L23.7333 41.6666L23.4 41.4666V41.8666ZM18.5333 41.9332L18.6667 41.7999L18.8 41.9999L18.5333 41.9332ZM26.4 42.7332L26.8 42.4666L26.8667 42.9999L26.4 42.7332ZM25.6666 42.9333L25.9333 42.8L26 43.1333L25.6666 42.9333ZM26.2 47.5333L25.9333 47.6666L26.2667 47.8666L26.2 47.5333ZM25.6 46.9999L25.5333 46.7333L25.8666 46.7999L25.6 46.9999ZM25.4667 45.1333L25.5333 45.4L25.8 45.2L25.4667 45.1333ZM26.5333 45.6L26.7333 45.8L26.4 45.9333L26.5333 45.6ZM17.4667 42.6666L17.6 42.7999L17.7333 42.5333L17.4667 42.6666ZM20.0667 44.1999L19.8667 44.1332V44.3332L20.0667 44.1999ZM19.2666 43.2666L19.4 43.0666L19.5333 43.2666H19.2666ZM23.9333 45.1999V45.5333L24.3333 45.3999L23.9333 45.1999ZM23.3333 42.4666V42.1333L23.7333 42.3333L23.3333 42.4666ZM26.2 44.3333L25.9333 44.3999L26.1333 44.6666L26.2 44.3333ZM25.0666 46.8L25.2 47.0666H24.8666L25.0666 46.8ZM25.4666 43.6L25.6 43.9333L25.8667 43.6H25.4666ZM26.6666 44.3333L26.4666 43.9999H26.9333L26.6666 44.3333ZM27.2 42.8L27 43L27.3333 43.1333L27.2 42.8ZM26.5333 44.7332L26.8 44.8666L26.5333 45.0666V44.7332ZM17.7333 39.3333L17.9333 39.4666L17.6667 39.6L17.7333 39.3333ZM16.2667 40.6666L16.2 40.8666L16 40.6666H16.2667Z" fill="#A84D3B"/>
<path fill-rule="evenodd" clip-rule="evenodd" d="M16.9336 36.8666L16.7336 36.7333L16.6669 37.0666L16.9336 36.8666ZM17.6003 37.3333L17.8003 36.9333L18.1336 37.4L17.6003 37.3333ZM18.0003 38.7332L18.1336 39.1999L18.5336 38.7999L18.0003 38.7332ZM18.8003 39.4L18.9336 39.6666L19.1336 39.4H18.8003ZM19.8669 40.2L19.6669 40.3333L19.9336 40.4666L19.8669 40.2ZM20.1336 40.0666L20.3336 39.9333L20.4003 40.1999L20.1336 40.0666ZM20.8669 40.2L20.6669 40.3333L20.9336 40.4666L20.8669 40.2ZM19.7336 41.7999L19.9336 41.9333L19.6669 42.0666L19.7336 41.7999ZM15.9336 39.6666L16.0669 39.9332L16.2669 39.6666H15.9336ZM17.267 38.3333L17.4003 38.1333L17.467 38.3999L17.267 38.3333ZM17.3336 40.6666L17.1336 40.5333V40.8L17.3336 40.6666ZM17.7336 38.1333L17.6003 37.8666H17.9336L17.7336 38.1333ZM18.2003 38.2666L18.3336 38.5333L18.5336 38.2666H18.2003ZM16.5336 37.7333L16.6669 37.5333L16.7336 37.8666L16.5336 37.7333ZM20.4669 40.8666V40.5333L20.7336 40.7333L20.4669 40.8666ZM21.667 41.1333L21.467 41.1999L21.6003 41.3999L21.667 41.1333ZM20.9336 40.6666L21.1336 40.5999L21.067 40.8666L20.9336 40.6666ZM25.6002 42.5999L25.4002 42.6666L25.5336 42.8666L25.6002 42.5999ZM24.4003 42.1999L24.667 42.1333L24.6003 42.3999L24.4003 42.1999ZM21.5336 42.6666L21.4003 42.4L21.2003 42.6666H21.5336ZM25.1336 45.7333L25.2669 45.9333H24.9336L25.1336 45.7333ZM21.1336 41.9333L21.0002 41.7333L20.8669 41.9333H21.1336ZM23.2003 41.7333L22.867 41.8666V41.5999L23.2003 41.7333ZM24.0003 41.7999V42.1332L24.2669 41.9999L24.0003 41.7999ZM24.9336 42.4666L25.1336 42.3999L25.067 42.7333L24.9336 42.4666ZM24.2669 43.8L24.1336 43.6L24.0003 43.8H24.2669ZM21.6669 43.8666L21.3336 44V43.7333L21.6669 43.8666ZM22.667 42.9999L22.4003 43.0666L22.6003 43.2666L22.667 42.9999ZM24.8002 43.3333L24.9336 43.5333H24.6669L24.8002 43.3333Z" fill="#A84D3B"/>
<path d="M32.9331 18.8001C32.9331 18.8001 34.8664 21.9334 35.1997 23.4001C35.5331 24.6667 35.5997 25.9334 35.5997 26.6667C35.5997 29.4667 35.3997 33.4001 35.0664 35.6001C34.3997 39.4001 32.5997 41.6667 30.4664 42.3334C28.3331 43.0001 24.4664 41.6001 21.8664 40.2667C19.6664 39.1334 18.3997 37.9334 18.0664 36.5334C17.7331 35.0667 17.0664 33.2001 17.0664 33.2001L17.1997 28.8667L22.3331 17.9334L32.9331 18.8001Z" fill="#EA9D7D"/>
<path d="M19.7333 30.8667C19.7333 30.8667 23.5999 26.5333 26.0666 25.6C30.7999 23.6667 35.3999 23.8667 35.3999 23.8667L34.6666 21.5333L21.1999 19.7333L18.2666 28.1333L19.7333 30.8667Z" fill="url(#paint1_linear_1897_43523)"/>
<ellipse cx="15.6661" cy="32.4667" rx="3.53333" ry="3.8" fill="#EA9D7D"/>
<path fill-rule="evenodd" clip-rule="evenodd" d="M11.7998 32.4666C11.7998 34.6666 13.5331 36.5333 15.6665 36.5333C17.7998 36.5333 19.5331 34.6666 19.5331 32.4666C19.5331 30.2666 17.7998 28.4 15.6665 28.4C13.5331 28.4 11.7998 30.2 11.7998 32.4666ZM12.3998 32.4666C12.3998 30.5333 13.8665 28.9333 15.6665 28.9333C17.4665 28.9333 18.9332 30.4666 18.9332 32.4666C18.9332 34.3999 17.4665 35.9999 15.6665 35.9999C13.8665 35.9999 12.3998 34.3999 12.3998 32.4666Z" fill="#B76349"/>
<ellipse cx="15.8002" cy="32.4667" rx="1.59999" ry="1.66667" fill="url(#paint2_linear_1897_43523)"/>
<path d="M19.5336 30.0667L18.4003 31.0667L17.9336 34.8L18.1336 35.8666C18.1336 35.8666 19.7336 35 19.8669 33.2666C20.0003 31.5333 19.5336 30.0667 19.5336 30.0667V30.0667Z" fill="#EA9D7D"/>
<path d="M28.2665 42.6C27.5332 42.6 26.9332 42.4667 25.5998 42.1333C23.4665 41.6 20.4665 39.9333 18.9332 38.4667C17.4665 37 17.5998 35.6 17.5998 35.5333C17.5998 35.4 17.5998 35.2 17.7332 35.2C17.8665 35.2 17.9332 35.3333 17.9998 35.4667C18.0665 35.7333 18.0665 36.8667 19.2665 38.0667C20.6665 39.4667 23.6665 41.0667 25.6665 41.6C27.7332 42.0667 28.1332 42.2 29.6665 42.0667C31.1332 41.9333 31.9998 41.3333 31.9998 41.3333C32.1998 41.2 32.3998 41.1333 32.2665 41.3333C32.1332 41.4667 31.0665 42.3333 29.7332 42.5333C29.1332 42.6 28.7332 42.6 28.2665 42.6Z" fill="#B76349"/>
<path fill-rule="evenodd" clip-rule="evenodd" d="M29.5336 30.0667L28.6669 29.5333L29.6669 29L29.5336 30.0667ZM29.0002 32.1333L28.5336 32.5333L28.4002 31.9333L29.0002 32.1333ZM22.5335 31.9334L22.6669 32.2667H22.2002L22.5335 31.9334ZM30.4002 32.9333L31.0669 33.3333L31.1335 32.5333L30.4002 32.9333Z" fill="#F4B9A6"/>
<path fill-rule="evenodd" clip-rule="evenodd" d="M29.3999 25.2667L29.1999 25.7334L29.7999 25.6667L29.3999 25.2667ZM29.5333 28.4667L28.6666 29.0001V27.8001L29.5333 28.4667ZM31.5332 34.4001L30.6666 34.9334V33.8001L31.5332 34.4001ZM31.5333 33.8668L31.8666 32.9334H30.7333L31.5333 33.8668ZM27.8 32.0668L28.3333 31.9334L28.1333 32.5334L27.8 32.0668ZM28.7333 31.2001L28.1333 31.3334L28.5333 31.8001L28.7333 31.2001ZM28.7999 34.6001L28.5999 34.0667L29.2666 34.1334L28.7999 34.6001ZM28.8666 35.0668L29.3332 35.3334L29.4666 34.8001L28.8666 35.0668ZM31.0666 36.8667L31.5999 36.6667L31.4666 37.3334L31.0666 36.8667ZM29.4667 28.5334L29.9333 28.6001L29.6667 29.0001L29.4667 28.5334ZM30.3999 26.9334L29.9332 26.8668L30.0666 27.3334L30.3999 26.9334ZM26.4666 28.4667L26.5333 27.8667L27.0666 28.2001L26.4666 28.4667ZM27.7999 26.9334L27.3333 27.2668L27.8666 27.6001L27.7999 26.9334ZM25.2666 27.7334H25.5999L25.4666 28.0668L25.2666 27.7334ZM30.6666 36.7334L30.1999 36.8667L30.5333 37.2001L30.6666 36.7334ZM29.6666 36.5334L30.1333 36.4001L30 36.9334L29.6666 36.5334ZM26.1333 33.4668L25.6666 33.5334L25.9333 34.0001L26.1333 33.4668ZM26.8 34.4668L27.2667 34.3334L27.0667 34.8668L26.8 34.4668ZM25.7333 32.0001L25.6666 32.4001L26.1999 32.2668L25.7333 32.0001ZM27.9333 31.0668L28.1333 31.4668H27.6L27.9333 31.0668ZM33 35.3334L33.2666 35.0667L32.8 35.0001L33 35.3334ZM31.3999 34.0668L31.1333 34.0001L31.3999 33.7334V34.0668ZM34.1333 31.2001L34.3999 31.0668L34.1333 30.9334V31.2001ZM33.0666 32.4667L32.7333 32.4001L32.9333 32.1334L33.0666 32.4667Z" fill="#F4B9A6"/>
<path fill-rule="evenodd" clip-rule="evenodd" d="M28.8673 26.7334L29.4673 26.6L29.0007 26.1334L28.8673 26.7334ZM24.334 29.2L24.534 28.8666L24.734 29.2H24.334ZM34.334 31.1334L34.2673 31.4L34.0007 31.2L34.334 31.1334ZM30.6673 33.2667L29.4673 33.6L29.6673 32.2667L30.6673 33.2667ZM28.534 29.0667L28.0673 29L28.134 29.4667L28.534 29.0667ZM24.534 32.0667L25.0673 31.8667V32.2667L24.534 32.0667ZM27.734 27.7333L27.8006 28.3333L28.334 27.9333L27.734 27.7333ZM27.6007 29L27.0673 29.2667L27.0007 28.7333L27.6007 29ZM27.6006 28.3333L27.6673 28.9333L28.2006 28.6L27.6006 28.3333ZM33.0673 27.9333L32.6007 27.7333L33.0673 27.4V27.9333ZM28.6007 30.6L28.334 30.2667L28.0007 30.7333L28.6007 30.6ZM30.4007 36.2667L30.8673 36.1334L30.734 36.6667L30.4007 36.2667ZM28.8006 33.2667L28.6673 33.6H29.134L28.8006 33.2667ZM29.0673 35.2667L29.2673 35.6L28.8673 35.6667L29.0673 35.2667ZM29.934 35.9334L30.2007 35.6667L29.8007 35.5334L29.934 35.9334ZM30.4673 34.8L30.134 35.0667L30.0006 34.6L30.4673 34.8Z" fill="#F4B9A6"/>
<path fill-rule="evenodd" clip-rule="evenodd" d="M30.067 25.8667L29.7337 26.1334L30.2004 26.2667L30.067 25.8667ZM32.1336 26.8001L31.667 26.9334L31.8003 26.4001L32.1336 26.8001ZM28.6004 28.0667L29.067 28.0001L28.7337 27.6001L28.6004 28.0667ZM30.3337 29.8667L30.867 29.4L31.1337 30.1334L30.3337 29.8667ZM28.7337 30.3334L28.5337 30.0001H29.0004L28.7337 30.3334ZM24.1337 30.9334L23.867 30.6001L23.667 31.0667L24.1337 30.9334ZM30.1337 32.2668L29.8003 32.5334L29.667 32.0668L30.1337 32.2668ZM30.467 34.2667L30.067 34.6001L29.9337 34.0667L30.467 34.2667ZM28.867 32.7334L29.2004 32.9334L29.3337 32.6L28.867 32.7334ZM32.467 35.9334L32.867 35.8667L32.7337 36.2667L32.467 35.9334ZM30.7337 32.1334L30.6003 32.4668L31.067 32.4001L30.7337 32.1334ZM31.5337 35.8667L31.8003 36.2L31.3337 36.2667L31.5337 35.8667ZM29.467 37.5334L29.5337 38L29.9337 37.6667L29.467 37.5334ZM27.9337 35.5334L28.2671 35.4V35.8L27.9337 35.5334ZM28.9337 36.0667L28.8671 36.4667L28.6004 36.3334L28.9337 36.0667ZM27.4003 35.6667L27.667 35.8L27.7337 35.3334L27.4003 35.6667ZM25.1337 36.5334L25.267 36.1334L25.6003 36.4667L25.1337 36.5334ZM26.7337 37.6001H26.3337L26.467 38.0001L26.7337 37.6001ZM25.0004 38.0667L25.3337 38.1334L25.067 38.4667L25.0004 38.0667ZM29.1337 31.8667L29.9337 31.6667L29.267 31.0001L29.1337 31.8667ZM28.6004 30.7334L29.0004 31.3333L29.5337 30.6L28.6004 30.7334ZM25.9337 30.3334L25.5337 30.5334L25.9337 30.7334V30.3334ZM29.867 30.6667L30.1337 30.4L30.267 30.8L29.867 30.6667ZM32.067 29L31.6004 29.1334L31.667 28.6L32.067 29ZM28.3337 29.1334L28.8671 29L28.4671 28.6667L28.3337 29.1334ZM26.0003 27.0667L26.4003 26.8667V27.2667L26.0003 27.0667ZM26.9337 33.1334L26.867 33.6667L27.467 33.4667L26.9337 33.1334ZM25.7337 33.0001L26.2004 32.9334L26.0004 33.4001L25.7337 33.0001ZM27.2003 34.9334L27.1337 35.4667L27.667 35.2667L27.2003 34.9334ZM27.867 33.5334V33L28.467 33.2L27.867 33.5334ZM27.4004 34L27.467 34.5334L28.0003 34.2L27.4004 34ZM26.8004 32.1334V32.5334L26.4004 32.3334L26.8004 32.1334Z" fill="#F4B9A6"/>
<path fill-rule="evenodd" clip-rule="evenodd" d="M26.8672 27L27.2672 26.8V27.2L26.8672 27ZM31.2005 28.0668L31.0005 27.8001L31.4672 27.7334L31.2005 28.0668ZM33.2006 29.2001L32.7339 29.3334L32.8006 28.8001L33.2006 29.2001ZM34.4672 33.1334L34.8672 32.9334L34.5339 32.6668L34.4672 33.1334ZM30.0672 28.0001V28.4668L30.6006 28.3334L30.0672 28.0001ZM29.4672 27.6L29.5339 27.1334L30.0005 27.4L29.4672 27.6ZM29.8672 31.6001L30.6672 32.1334L30.9339 31.1334L29.8672 31.6001ZM32.6672 31.3334L31.8006 31.6L32.0672 30.5334L32.6672 31.3334ZM29.6672 32.0667L29.9339 32.1334L29.8672 31.8001L29.6672 32.0667ZM29.1339 30.5334L29.2672 30.2L29.6005 30.5334H29.1339ZM30.0672 29.2001L29.6005 29.2667L29.8672 29.6667L30.0672 29.2001ZM31.0672 29.4667L31.5339 29.4001L31.3339 29.8667L31.0672 29.4667Z" fill="#F4B9A6"/>
<path fill-rule="evenodd" clip-rule="evenodd" d="M31.2004 26.2667L31.467 25.7333H30.8004L31.2004 26.2667ZM29.7337 30.0667L30.7337 29.5333L29.667 28.8667L29.7337 30.0667ZM30.667 33.3999L30.467 33.8666L30.067 33.3999H30.667ZM29.6003 31.3333L30.467 30.8666L29.5337 30.2666L29.6003 31.3333ZM30.467 27.6666L30.1337 27.3999L30.6003 27.2666L30.467 27.6666ZM31.2003 28.1333L30.7337 28.8666L31.7337 28.9333L31.2003 28.1333ZM31.667 27.4667L31.867 27.2L32.1336 27.5333L31.667 27.4667ZM32.3337 30.0666L32.6003 30.3333L32.7337 29.9333L32.3337 30.0666ZM30.8671 27.0666L31.0671 26.7999L31.3337 27.1333L30.8671 27.0666ZM25.1337 30.7333L24.667 30.8667L25.067 31.2667L25.1337 30.7333ZM25.6003 29.1333L25.8004 28.7333L26.1337 29.1333H25.6003ZM26.8004 28.7333L26.7337 28.3333L26.4004 28.6667L26.8004 28.7333ZM26.2003 30.4667L26.267 30.8667L25.8003 30.8L26.2003 30.4667Z" fill="#F4B9A6"/>
<path fill-rule="evenodd" clip-rule="evenodd" d="M21.5332 21.1333V20.4L22.1999 20.7333L21.5332 21.1333ZM34.3332 22.2L34.5332 22.4L34.5999 22.0666L34.3332 22.2ZM33.3332 22.7333L33.1332 22.5333L33.4666 22.4L33.3332 22.7333ZM28.0665 23.0666L28.1332 22.7333L28.3332 23.0666H28.0665ZM28.0666 23.3333L28.2666 23.6L27.9999 23.6667L28.0666 23.3333ZM30.8666 23.1333L30.6665 22.9333L30.5332 23.2L30.8666 23.1333ZM34.1999 22.5333L33.9332 22.5999L33.9999 22.2666L34.1999 22.5333ZM28.9332 23.1333L28.7332 22.9333L28.5998 23.2L28.9332 23.1333ZM31.7999 22.7333L32.0665 22.9333L31.7332 23.0666L31.7999 22.7333ZM27.7332 23.2667L27.5332 23L27.3999 23.3333L27.7332 23.2667ZM25.6665 22.2L25.5332 22.5333L25.9332 22.4666L25.6665 22.2ZM22.9332 21.5333V21.2L23.2665 21.4L22.9332 21.5333ZM22.7998 22.4666L22.7332 22.7999L23.1332 22.6666L22.7998 22.4666ZM23.1999 23.6L23.1332 23.2L23.5332 23.3333L23.1999 23.6ZM26.3332 22.6666L26.0666 22.4666L25.9332 22.7333L26.3332 22.6666ZM26.5999 22.8666L26.5332 22.3999L27.0666 22.5333L26.5999 22.8666Z" fill="#A84D3B"/>
<path fill-rule="evenodd" clip-rule="evenodd" d="M23.1997 21.3333L23.2664 21.8L23.7998 21.5333L23.1997 21.3333ZM23.8664 22L23.9998 22.5334L24.4664 22.1334L23.8664 22ZM27.7997 23L27.5997 22.6667H28.0664L27.7997 23ZM30.2664 23.0666L30.0664 22.8L30.5331 22.7333L30.2664 23.0666ZM31.2664 23.0667L31.0664 22.7333L31.5331 22.6667L31.2664 23.0667ZM28.9998 22.7334L29.1331 23.2L29.5997 22.8667L28.9998 22.7334ZM24.9998 22.6667L24.8665 22.4L25.2665 22.4667L24.9998 22.6667ZM23.6664 23.6L23.5998 23.9334L23.9331 23.8L23.6664 23.6ZM23.2664 24.1333L23.3331 23.8667L23.5998 24.0667L23.2664 24.1333ZM25.6664 22.6L25.7998 22.7333L25.8664 22.6H25.6664ZM27.2664 22.9333L27.1331 22.8L27.3998 22.7333L27.2664 22.9333ZM29.6664 23L29.7331 23.1333L29.8664 23H29.6664ZM22.7998 24.1333L22.9998 24.0667L22.9331 24.2667L22.7998 24.1333ZM22.8664 23.8L23.1331 23.7333L23.0664 24L22.8664 23.8Z" fill="#A84D3B"/>
<path fill-rule="evenodd" clip-rule="evenodd" d="M22.5999 21.7333V21.5333L22.8666 21.6667L22.5999 21.7333ZM23.5333 21.9333L23.2666 21.7999L23.5333 21.5999V21.9333ZM22.8666 23.4667L22.9333 23.8L22.5333 23.7333L22.8666 23.4667ZM25.1999 22.3333L25.4665 22.3999L25.3999 22.0666L25.1999 22.3333ZM23.1999 22.3333L23.4665 22.3999L23.3999 22.0666L23.1999 22.3333ZM23.1333 24.9333V24.7333L23.3333 24.8666L23.1333 24.9333ZM22.5333 22.2L22.2666 22.2666L22.4666 22.4666L22.5333 22.2ZM22.5999 24.5333V24.0667L23.0665 24.2667L22.5999 24.5333Z" fill="#A84D3B"/>
<path fill-rule="evenodd" clip-rule="evenodd" d="M22.3998 20.8L22.4665 21.3333L22.9331 21.2L22.3998 20.8ZM22.9331 22L22.7331 22.2L22.6665 21.9333L22.9331 22ZM22.9998 24.6L22.7331 24.8L22.6665 24.4666L22.9998 24.6ZM22.3332 22.9333L22.5998 22.7333L22.1999 22.5333L22.3332 22.9333ZM24.0665 22.8667L23.8665 22.7333L24.1331 22.6L24.0665 22.8667ZM22.7331 25.5333L22.9998 25.3999L22.7331 25.1999V25.5333ZM21.9998 26.9999V26.6666L22.2665 26.8666L21.9998 26.9999ZM21.9998 22.1333L21.7998 21.9333L22.1331 21.8L21.9998 22.1333ZM24.4665 21.8L24.5998 22.4L25.1331 22.0666L24.4665 21.8ZM22.1998 21.7333L21.9998 21.5333L22.3331 21.4666L22.1998 21.7333ZM26.1331 23.0666L26.4665 23.1999L26.3998 22.8666L26.1331 23.0666ZM32.7332 22.9999L32.4665 22.8666L32.7332 22.6666V22.9999ZM22.5332 23.5333L22.9998 23.3333L22.5332 22.9333V23.5333ZM21.8665 21.2667L22.1331 20.8L22.3998 21.3333L21.8665 21.2667Z" fill="#A84D3B"/>
<path fill-rule="evenodd" clip-rule="evenodd" d="M21.5996 21.4001L21.8663 21.2667V21.6001L21.5996 21.4001ZM23.1995 22.8001L23.4662 22.8667L23.2662 23.0667L23.1995 22.8001ZM24.2662 21.8001L24.1996 22.0667L24.4662 22.0001L24.2662 21.8001ZM22.0662 21.8667L22.5329 22.0667L22.0662 22.4V21.8667Z" fill="#A84D3B"/>
<path fill-rule="evenodd" clip-rule="evenodd" d="M22.5998 21.3333L22.7332 21.6L22.8665 21.3333H22.5998ZM21.8665 21.5333L21.7998 21.7333L22.0665 21.6666L21.8665 21.5333ZM23.7331 21.5333L24.0664 21.8L23.6664 22L23.7331 21.5333Z" fill="#A84D3B"/>
<path fill-rule="evenodd" clip-rule="evenodd" d="M15.8662 30.9334L16.1995 30.8667L16.0662 31.2L15.8662 30.9334ZM17.3329 32.5334V32.8L17.0662 32.6L17.3329 32.5334Z" fill="#964C38"/>
<path fill-rule="evenodd" clip-rule="evenodd" d="M15.1328 31L15.5328 30.8667L15.4661 31.3334L15.1328 31ZM15.7995 31.3334L16.1329 30.9334L16.3329 31.4667L15.7995 31.3334ZM17.2661 31.8L17.0661 32L17.3328 32.0667L17.2661 31.8ZM16.4662 31.7334L16.6662 31.5334L16.7328 31.8001L16.4662 31.7334Z" fill="#964C38"/>
<path fill-rule="evenodd" clip-rule="evenodd" d="M15.3994 31.6L15.5994 31.4L15.6661 31.6667L15.3994 31.6ZM16.9327 32.2L17.0661 32L17.1994 32.2666L16.9327 32.2Z" fill="#964C38"/>
<path fill-rule="evenodd" clip-rule="evenodd" d="M15 31.5334L15.2667 31.2667L15.4667 31.7334L15 31.5334ZM16.5334 32.5334L16.3334 32.4668L16.6001 32.3334L16.5334 32.5334ZM17.1334 31.6001L17.0667 31.7334H17.2667L17.1334 31.6001ZM17.2 32.4001L17.2667 32.2667L17.4 32.4001H17.2Z" fill="#964C38"/>
<path fill-rule="evenodd" clip-rule="evenodd" d="M16.4663 30.9334L16.2663 31.1334L16.1996 30.8667L16.4663 30.9334ZM14.5996 31.4L14.8663 31.1334L14.9996 31.5334L14.5996 31.4ZM15.3329 32.3333L15.2663 32.2H15.3996L15.3329 32.3333ZM15.733 32.6L15.5997 32.6667L15.7997 32.7334L15.733 32.6ZM15.5329 31.1333L15.3329 31.2667L15.5996 31.3333L15.5329 31.1333ZM14.9996 31.2L15.1996 31.2667L14.9996 31.4667V31.2Z" fill="#964C38"/>
<path fill-rule="evenodd" clip-rule="evenodd" d="M16.4666 31.4667L16.5333 31L16.9333 31.3333L16.4666 31.4667ZM15.2 31.2667V31.0667L15 31.1334L15.2 31.2667ZM16.8 31.6L16.9333 31.8L17.0667 31.5334L16.8 31.6Z" fill="#964C38"/>
<path fill-rule="evenodd" clip-rule="evenodd" d="M15.9332 30.8667L15.7332 30.8V31L15.9332 30.8667ZM16.5332 31.4667L16.3332 31.2667L16.5999 31.2L16.5332 31.4667ZM14.5999 32.1333L14.7332 31.9333L14.7999 32.1333H14.5999ZM15.6665 32.2L15.5332 32.0667L15.7999 32L15.6665 32.2ZM16.0665 32.8667L15.9332 33.0667L16.1999 33.1333L16.0665 32.8667ZM14.5332 31.6667L14.6665 31.4667L14.7999 31.6667H14.5332Z" fill="#964C38"/>
<path fill-rule="evenodd" clip-rule="evenodd" d="M14.7332 31.8H14.5332L14.5999 31.6L14.7332 31.8ZM15.0665 32.8L15.2665 32.8667L15.1332 33.0667L15.0665 32.8Z" fill="#964C38"/>
<path fill-rule="evenodd" clip-rule="evenodd" d="M15.5999 31.0667L15.6666 31.2667L15.8666 31.1333L15.5999 31.0667ZM15.9999 31.5333L15.7999 31.6L15.9999 31.8V31.5333ZM14.6 31.8666L14.5333 31.6666L14.4666 31.8666H14.6ZM14.4666 32.5333L14.3999 32.3333L14.3333 32.5999L14.4666 32.5333ZM14.9333 31.8666V31.6666L15.1333 31.7333L14.9333 31.8666ZM14.5333 32.2666L14.3999 31.9999L14.2666 32.2666H14.5333ZM14.6666 32.5333V32.3333L14.8666 32.3999L14.6666 32.5333ZM16.9999 32.7333L16.9333 32.5333L17.1999 32.5999L16.9999 32.7333ZM16.1332 31.6L16.2665 31.8L16.0666 31.8666L16.1332 31.6Z" fill="#964C38"/>
<path fill-rule="evenodd" clip-rule="evenodd" d="M34.467 25.9333C34.5336 26 34.667 26 34.7336 26C34.867 26 35.0003 25.9333 35.1336 25.8C35.2607 25.5754 35.204 25.2917 35.0003 25.1333C34.1765 24.5449 33.145 24.7874 32.8684 24.8525C32.8316 24.8611 32.8081 24.8666 32.8003 24.8666C32.5336 24.9333 32.4003 25.2 32.467 25.4666C32.5336 25.7333 32.8003 25.8666 33.067 25.8C33.0766 25.8 33.1017 25.7944 33.1391 25.786C33.3598 25.7367 34.0109 25.5912 34.467 25.9333ZM24.6003 27.3333C24.6669 27.4 24.8003 27.4 24.8669 27.4C24.9645 27.4 25.0621 27.3642 25.1859 27.3189C25.2312 27.3024 25.28 27.2845 25.3336 27.2666C25.3336 27.2 26.1336 26.0666 27.9336 26.2C28.2003 26.2 28.4669 26 28.4669 25.7333C28.4669 25.4666 28.2669 25.2 28.0003 25.2C25.767 25.0139 24.6883 26.3863 24.4954 26.6316C24.481 26.65 24.4716 26.662 24.4669 26.6666C24.3398 26.8912 24.3966 27.1749 24.6003 27.3333Z" fill="#AF361A"/>
<ellipse cx="27.2663" cy="30" rx="0.933342" ry="0.933336" fill="#4F2B23"/>
<ellipse cx="34.1999" cy="29.5334" rx="0.933342" ry="0.933331" fill="#4F2B23"/>
<path d="M31.1329 35.6667C30.9329 35.6667 30.7329 35.5333 30.6662 35.2667C30.5996 35 30.7996 34.7333 31.0662 34.7333C31.0662 34.7333 31.7996 34.6 31.8662 34C31.9329 33.4 31.3329 31.7333 30.9996 30.8667C30.8662 30.6 30.9996 30.3333 31.2662 30.2667C31.5329 30.1333 31.7996 30.2667 31.8662 30.5333C31.9996 30.8 32.8663 33.0667 32.7996 34.1333C32.7329 35.1333 31.7996 35.6667 31.2662 35.7333C31.1996 35.6667 31.1329 35.6667 31.1329 35.6667Z" fill="#B4603F"/>
<path d="M28.8661 38.4667C26.3328 38.3334 25.2661 36.5334 24.9994 35.5334C24.9327 35.2667 25.0661 35 25.3327 34.9334C25.5994 34.8667 25.8661 35 25.9327 35.2667C25.9327 35.3334 26.4661 37.3334 28.8661 37.4667C29.1328 37.4667 29.3328 37.7334 29.3328 37.9334C29.3328 38.2667 29.1328 38.4667 28.8661 38.4667Z" fill="#CF7653"/>
<path fill-rule="evenodd" clip-rule="evenodd" d="M24.5332 31.0667C24.5332 33.4667 25.9999 35.4667 27.8665 35.4667C29.6666 35.4667 31.1999 33.4667 31.1999 31.0667C31.1999 28.6667 29.6666 26.6667 27.8665 26.6667C26.0665 26.6667 24.5332 28.6667 24.5332 31.0667ZM25.1999 31.0667C25.1999 29 26.3999 27.3334 27.8665 27.3334C29.3332 27.3334 30.5332 29 30.5332 31.0667C30.5332 33.1334 29.3332 34.8 27.8665 34.8C26.3999 34.8 25.1999 33.1334 25.1999 31.0667Z" fill="white"/>
<path fill-rule="evenodd" clip-rule="evenodd" d="M30.3996 29.8L30.9996 30.1334C30.9996 30.1334 31.1996 29.7334 31.4663 29.8C31.8663 29.8 32.1996 30.0667 32.1996 30.0667L32.5996 29.5334C32.5996 29.4667 32.1329 29.1334 31.4663 29.1334C30.7996 29.1334 30.3996 29.8 30.3996 29.8ZM19.8243 29.298L19.7109 29.9553L24.7109 30.822L24.8243 30.1647L19.8243 29.298Z" fill="white"/>
<path d="M17.8665 14.3334C17.8665 14.3334 14.5331 13 11.8665 17.6667C8.93312 22.8667 12.7331 29.7334 12.7331 29.7334C12.7331 29.7334 13.8665 28.0667 16.0665 28.4C17.8665 28.6667 18.3998 29.6667 18.9331 30.2667C19.4664 30.8 21.5998 30.3334 22.3331 27.8667C22.8664 25.9334 22.8664 24.0667 22.1998 22.7334C21.5331 21.4 20.9331 19.8667 21.8664 20.5334C22.7998 21.2 24.3998 22.0667 26.8664 22.4667C29.3331 22.8667 34.0664 23.2667 36.4664 21.2C38.8664 19.2 38.9998 17.4667 38.9331 16.0667C38.8664 14.6667 38.1331 13.8667 38.1331 13.8667C38.1331 13.8667 36.7998 14.6 36.1331 14.6667C35.4664 14.7334 34.9331 14.8 34.9998 13.9334C35.1331 11.9334 33.9998 11.2667 33.9998 11.2667C33.9998 11.2667 33.5331 11.8667 32.9998 12.2C31.8664 12.8667 31.1998 12.9334 30.0664 12.5334C28.5998 12.0667 27.0664 10.7334 24.0664 10.6667C21.9331 10.7334 19.5331 11.8667 17.8665 14.3334Z" fill="#C94112"/>
<path fill-rule="evenodd" clip-rule="evenodd" d="M25.7324 11.7334L25.4657 10.9334L26.399 11.1334L25.7324 11.7334ZM32.5324 13.3334L31.8658 12.8001L32.2658 12.6667L32.7325 12.4667L32.5324 13.3334ZM33.9991 11.4001L33.5991 11.9334L34.2657 12.0001L33.9991 11.4001ZM30.6658 14.2668L31.3991 13.7334V14.8001L30.6658 14.2668ZM29.0657 12.7334L28.8657 13.0667L29.3324 13.1334L29.0657 12.7334ZM23.1324 11.6667L23.3991 11.2L23.7324 11.8L23.1324 11.6667ZM23.9991 11.7334L23.7991 12.2668L24.3324 12.3334L23.9991 11.7334ZM23.3324 12.6667L22.7324 12.0001L23.8657 11.8001L23.3324 12.6667Z" fill="#FF593E"/>
<path fill-rule="evenodd" clip-rule="evenodd" d="M22.7331 12L22.0664 11.4667L22.9331 11.1334L22.7331 12ZM24.2664 12.1334L24.9997 12.0667L24.5997 12.8667L24.2664 12.1334ZM32.3997 14.6667L32.133 14.8667L32.3997 15.0667V14.6667ZM29.7331 13.4667L29.9997 13.2667L30.0664 13.6667L29.7331 13.4667ZM30.5997 14L30.8664 13.6667L30.3997 13.5334L30.5997 14ZM33.6664 14.6001L33.9331 14.4001L33.9998 14.7334L33.6664 14.6001ZM33.0664 13.6L32.733 13.2667L32.5331 13.8L33.0664 13.6ZM34.1331 12.1334L34.4664 12.4667L33.9331 12.7334L34.1331 12.1334Z" fill="#FF593E"/>
<path fill-rule="evenodd" clip-rule="evenodd" d="M25.066 11.2667L24.5993 10.8667L24.3993 11.5334L25.066 11.2667ZM28.3327 12.1334L27.9327 11.7334L27.7327 12.3334L28.3327 12.1334ZM30.3327 12.7333L30.066 13.2L29.7327 12.6667L30.3327 12.7333ZM30.666 13.4667L30.3327 13.1334L30.1327 13.6667L30.666 13.4667ZM31.8661 13.8L32.1994 14.1333L31.6661 14.4L31.8661 13.8ZM30.266 14.0001L30.666 14.3334L30.066 14.6001L30.266 14.0001ZM28.7994 12.2667L29.1994 12.6L28.6661 12.8L28.7994 12.2667ZM24.3327 11.2L23.866 11.6667L23.666 10.9333L24.3327 11.2ZM26.866 11.4667L26.5327 11.1333L26.3327 11.7333L26.866 11.4667ZM25.3327 11.9334L24.866 11.4L25.7327 11.2L25.3327 11.9334Z" fill="#FF593E"/>
<path fill-rule="evenodd" clip-rule="evenodd" d="M24.9329 10.8L25.3996 10.9334L24.9996 11.2667L24.9329 10.8ZM22.5996 10.8668L23.0663 11.4001L23.4663 10.8001L22.5996 10.8668ZM24.7996 12.2001L24.3996 11.6001L25.1996 11.4001L24.7996 12.2001ZM25.0663 12.6667L24.933 12.0001L25.733 12.2001L25.0663 12.6667ZM33.333 12.8001L33.2663 12.2001L32.733 12.5334L33.333 12.8001ZM30.5996 13.5334L30.3329 12.8667L31.1329 13L30.5996 13.5334ZM29.1329 12.3334L29.3329 13.0667L29.8663 12.6001L29.1329 12.3334ZM28.3996 12.6001L28.2663 11.8667L28.9996 12.2001L28.3996 12.6001Z" fill="#FF593E"/>
<path fill-rule="evenodd" clip-rule="evenodd" d="M23.4667 10.8L23.9333 10.9334L23.5333 11.3334L23.4667 10.8ZM22.2666 11.0667H22.7333L22.5333 11.5333L22.2666 11.0667ZM31.8 16.2667L31.6 16.4667L31.8667 16.6L31.8 16.2667ZM33 15.3333L33.2 15.4667L32.9333 15.6L33 15.3333ZM32.7333 14.3333L32.8667 14.6667L33.0667 14.4L32.7333 14.3333ZM29.6667 13.3333L29.5333 13H29.8667L29.6667 13.3333ZM32.1333 15.3333L31.9333 15.5333L32.2 15.6L32.1333 15.3333ZM24.8 15.6L25 15.4L25.0666 15.6666L24.8 15.6ZM32.0666 13L31.6 13.4L32.2 13.7333L32.0666 13ZM31.1999 15.8L31.4666 15.9334L31.1999 16.0667V15.8ZM31.6666 15.2666L31.8666 15.3333L31.8 15.0666L31.6666 15.2666ZM30.2666 15.2666L29.8666 15.2L30.1333 14.8L30.2666 15.2666Z" fill="#FF593E"/>
<path fill-rule="evenodd" clip-rule="evenodd" d="M24.3997 11.3334L24.6664 10.9334L24.0664 10.8667L24.3997 11.3334ZM27.5997 11.6667L27.333 12.0667L26.9997 11.4667L27.5997 11.6667ZM31.7997 12.8668L31.5997 13.4001L31.133 12.9334L31.7997 12.8668ZM29.5997 15.8001V15.5334L29.8664 15.7334L29.5997 15.8001ZM31.0664 13.8001L31.3331 13.4001L30.7997 13.2667L31.0664 13.8001ZM32.3997 16.6001V16.3334L32.6664 16.5334L32.3997 16.6001ZM30.8664 16.3334L30.5331 16.4001L30.7331 16.6001L30.8664 16.3334ZM25.7331 16.8668L26.0664 16.8001L25.9331 17.1334L25.7331 16.8668ZM29.7997 16.9334L29.933 17.2L30.0664 16.9334H29.7997ZM33.5997 14.0667L33.3997 13.7334L33.7997 13.6667L33.5997 14.0667ZM28.8664 16.5334L29.0664 16.2001H28.6664L28.8664 16.5334ZM26.2664 11.4667L26.8664 11.4L26.5997 12.0667L26.2664 11.4667ZM30.0664 14.1334L30.3331 13.6001H29.6664L30.0664 14.1334ZM25.533 14.7334L26.0664 14.4V15.0667L25.533 14.7334ZM27.9997 15.2667L27.533 15.5334L27.9997 15.8001V15.2667ZM26.3331 15.8667L26.1998 15.6667L26.4664 15.6L26.3331 15.8667Z" fill="#FF593E"/>
<path fill-rule="evenodd" clip-rule="evenodd" d="M27.7334 11.8667L26.9333 12.2667L27.6 12.8667L27.8667 12.4667L27.7334 11.8667ZM24.6 12.7334L24.4667 13.4L25.2 13.1334L24.6 12.7334ZM24.9333 14.2L25.0666 14L25.2 14.2H24.9333ZM27.0667 15.8667L27.2667 15.9334L27.0667 16.0667V15.8667ZM26.5333 14.8667L26.3333 15.2L26.8 15.2667L26.5333 14.8667ZM28 17.2667L28.2 17.3333L28.0667 17.5333L28 17.2667ZM24.1333 15.9334L24 15.4L24.6 15.5334L24.1333 15.9334ZM26.5333 13L27.0666 12.7334L27.2 13.0667L27 13.4667L26.5333 13Z" fill="#FF593E"/>
<path fill-rule="evenodd" clip-rule="evenodd" d="M26.3997 11.8L25.9997 11.6667L25.5331 11.8L25.9331 12.4667L26.3997 11.8ZM26.2664 12.2667L27.3331 12.4001L26.6664 13.1334L26.2664 12.2667ZM27.133 13.6L26.6664 13.3334L26.2664 13.4L26.3997 14.3334L27.133 13.6ZM23.6664 15.4L23.0664 15.7333L23.7331 16.0667L23.6664 15.4ZM28.933 13.1334L29.7997 13.3334L29.0664 14.0667L28.933 13.1334Z" fill="#FF593E"/>
<path d="M30.1333 13.9333L29.2666 13.7333L29.3999 14.6667L30.1333 13.9333Z" fill="#FF593E"/>
<path fill-rule="evenodd" clip-rule="evenodd" d="M23.9997 12.4L24.4663 13.0667L23.4663 13.2L23.9997 12.4ZM24.9996 13.1333L25.3996 12.8L25.8663 13.4667L24.8663 13.5333L24.9996 13.1333ZM29.333 14.2667L29.6664 14.8L28.933 14.8667L29.333 14.2667ZM25.133 14.0001L24.533 13.6667L24.3996 14.4667L25.133 14.0001ZM28.533 15.0667L28.7996 14.4667L27.9996 14.4L28.533 15.0667ZM27.733 14.8667L27.133 15.1334L27.2663 14.3334L27.733 14.8667ZM32.7996 13.2L33.2663 13.0667L32.8663 12.6667L32.7996 13.2ZM23.933 15.1333L23.333 15.3333L23.4663 14.6L23.933 15.1333Z" fill="#FF593E"/>
<path fill-rule="evenodd" clip-rule="evenodd" d="M33.6658 12.4667L33.3324 12.1334L33.8658 11.9334L33.6658 12.4667ZM21.1991 15.0001L20.7324 15.2001L20.8658 14.6001L21.1991 15.0001ZM26.9325 14.7334L26.7991 14.1334L26.1992 14.5334L26.9325 14.7334ZM25.9992 12.5334L26.8658 12.8001L26.1325 13.4667L25.9992 12.5334ZM28.8658 12.9334L27.9991 12.7334L28.1325 13.6667L28.8658 12.9334ZM27.8658 13.7334L28.6658 13.9334L27.9325 14.6667L27.8658 13.7334ZM27.6658 13.8L27.1991 14.0667L27.5991 14.4667L27.6658 13.8ZM25.5324 15.4667L25.7324 15.6667L25.4658 15.7334L25.5324 15.4667Z" fill="#FF593E"/>
<path fill-rule="evenodd" clip-rule="evenodd" d="M27.9998 12.8001L28.0664 12.4667L28.3331 12.6667L27.9998 12.8001ZM26.8665 14.1334L26.9998 14.4667L27.2665 14.1334H26.8665ZM25.3331 14.8668L24.9998 14.4668L24.7998 15.0668L25.3331 14.8668ZM28.9998 14.2001L28.7998 13.6667L28.3331 14.1334L28.9998 14.2001ZM25.9331 13.5334L26.4664 13.7334L25.9331 14.2V13.5334Z" fill="#FF593E"/>
<path fill-rule="evenodd" clip-rule="evenodd" d="M27.7333 12.8L27.5333 13H27.8L27.7333 12.8ZM27.4 13.1333L28 13V13.8667L27.3333 13.4L27.4 13.1333ZM24.2667 13L24.7333 13.2L24.2667 13.6V13ZM25.4 13.5333L25.9333 13.8L25.4 14.2V13.5333ZM28.6667 13.5334L28.6 13.3334L28.3333 13.5334H28.6667ZM29.4 16.4V16.0667L29.7333 16.2667L29.4 16.4ZM28.0666 16.5333L28.2 16.8L28.3333 16.5333H28.0666ZM29 15.6667L28.6667 15.8V15.5333L29 15.6667ZM27.8666 14.2667L27.9333 13.9334L27.5333 14L27.8666 14.2667ZM28.1333 14.4667L28.2667 14.2666L28.4667 14.4667H28.1333ZM27.1333 15.3334L27 15.6H27.2667L27.1333 15.3334ZM28.8667 12.9334L29 13.0667L28.7333 13.2L28.8667 12.9334ZM31.2 15.1334L31.2667 14.8L30.9334 14.8667L31.2 15.1334ZM30.6667 15.6L30.6 15.8667L30.3333 15.6H30.6667ZM24.2667 16.8L24.3333 16.4667L24 16.5334L24.2667 16.8ZM30.4667 14.8L30.4 14.4L30.8667 14.5334L30.4667 14.8Z" fill="#FF593E"/>
<path fill-rule="evenodd" clip-rule="evenodd" d="M25.533 13.1334L25.133 12.6667L25.7997 12.4667L25.533 13.1334ZM28.333 13.7334L28.2664 13.4001L28.6664 13.5334L28.333 13.7334ZM30.6664 15.2001L30.5331 15.0001L30.3998 15.2667L30.6664 15.2001ZM23.5331 17.0001L23.7331 17.2001L23.3997 17.2667L23.5331 17.0001ZM28.2664 15.0667L27.9997 15.1334L28.2664 15.3334V15.0667ZM27.7997 14.5334L27.8664 14.8001L27.5997 14.7334L27.7997 14.5334ZM13.2664 15.8001L14.1997 16.1334L14.1331 15.0001L13.2664 15.8001ZM22.7331 16.0001L23.0664 15.9334L22.9331 16.2668L22.7331 16.0001ZM20.8664 13.8667L20.133 14L20.6664 14.6667L20.8664 13.8667ZM18.7331 15.4668L18.9331 15.7334H18.5331L18.7331 15.4668ZM21.4664 16.2001L21.2664 15.8001L20.9331 16.1334L21.4664 16.2001ZM15.9331 16.1334V15.4667L16.6664 15.8667L15.9331 16.1334ZM21.9998 12.7334V13.4001L22.6664 13.1334L21.9998 12.7334ZM23.1331 13.0667L23.1998 12.6667L23.5998 12.8667L23.1331 13.0667ZM23.0664 13.4667V13.8667L23.4664 13.7334L23.0664 13.4667ZM11.3331 19.0668L11.7331 18.0668L12.2664 19.0001L11.3331 19.0668ZM11.2664 19.1334L11.0664 20.0001L11.8664 19.6001L11.2664 19.1334ZM13.1331 20.8001V20.4001L13.5331 20.6668L13.1331 20.8001ZM12.1997 20.3334V20.6667L12.5997 20.5334L12.1997 20.3334ZM17.9998 14.4001L18.2664 13.8667L18.6664 14.4001H17.9998ZM17.1331 15.9334L16.9997 15.6667L16.7331 15.9334H17.1331ZM16.6664 16.0001L16.933 16.5334L16.2664 16.4668L16.6664 16.0001ZM21.533 14.2668L21.2664 14.8668H21.9997L21.533 14.2668ZM19.9998 16.2V15.8667L20.3331 16.0667L19.9998 16.2Z" fill="#FF593E"/>
<path fill-rule="evenodd" clip-rule="evenodd" d="M21.6662 13.1334L20.9996 12.8667L21.5996 12.3334L21.6662 13.1334ZM23.4662 14.0667L23.5329 13.2L24.4662 13.7334L23.4662 14.0667ZM14.8662 19V18.7334L15.1995 18.9334L14.8662 19ZM14.2662 20.4L14.5995 20.4667L14.3328 20.7333L14.2662 20.4ZM12.8662 19.1334L12.7996 19.8667L13.4662 19.6001L12.8662 19.1334ZM11.8662 19.8667V19.1334L12.5329 19.6001L11.8662 19.8667ZM12.5995 21.2667L12.5329 21.6001L12.9329 21.4667L12.5995 21.2667ZM22.0662 14.1334L22.7995 14.4001L22.7328 13.4667L22.0662 14.1334ZM23.1329 12.9333L22.5995 13L22.9329 13.5333L23.1329 12.9333ZM14.1995 20.1334H13.9329L14.1329 19.8667L14.1995 20.1334ZM14.1996 18.6V18.8L14.3996 18.6667L14.1996 18.6ZM16.8662 19.2667L17.0662 19.1334V19.4001L16.8662 19.2667ZM14.0662 21.6L13.8662 21.7333L14.0662 21.8667V21.6ZM12.8662 22.4667L12.9996 22.3334L13.0662 22.6001L12.8662 22.4667ZM15.6662 18.9334L15.7329 19.1334L15.9329 18.9334H15.6662ZM14.5996 19.6667L14.4662 19.3334H14.8662L14.5996 19.6667ZM17.3995 18.8L17.2662 18.8667L17.4662 19L17.3995 18.8ZM22.5328 14.4667L22.7995 14.7334L22.3995 14.8667L22.5328 14.4667ZM33.7995 13.2667L34.1329 13.5334L34.1996 13.1334L33.7995 13.2667ZM36.2662 15.4667L35.8662 14.8667H36.1995L36.6662 14.8001L36.2662 15.4667ZM38.1329 14L37.5995 14.4L38.1995 14.6667L38.1329 14ZM35.3995 16.8667L35.7329 16.8001L35.6662 17.1334L35.3995 16.8667ZM37.3329 16.8667L36.9996 17L37.2662 17.2667L37.3329 16.8667ZM36.4662 15.4667L36.7328 15.9333L36.1328 16L36.4662 15.4667ZM38.3329 15.2L38.0662 14.8L37.7329 15.2667L38.3329 15.2ZM35.4662 15.8L35.7328 16.2L35.1328 16.2667L35.4662 15.8ZM35.0662 15.0667L34.7996 14.6L34.5329 15.1334L35.0662 15.0667ZM37.2662 14.4667V15.0667L36.6662 14.7334L37.2662 14.4667ZM36.2662 17.7334L36.1329 17.5334L35.9996 17.8L36.2662 17.7334ZM36.1996 16.8667V16.5334L36.5329 16.6667L36.1996 16.8667ZM35.3329 17.3334L35.0662 17.4667L35.3329 17.6667V17.3334ZM35.0662 14.9334L35.7329 14.8667L35.3995 15.5334L35.0662 14.9334Z" fill="#FF593E"/>
<path fill-rule="evenodd" clip-rule="evenodd" d="M20.5991 12.3333L20.2658 12.8L19.8658 12.2L20.5991 12.3333ZM19.7324 13.1334L19.8658 12.8L20.0658 13.1334H19.7324ZM20.2657 12.9333L20.1324 13.2L20.4657 13.2666L20.2657 12.9333ZM17.4657 14.2666L17.5324 14.8666L18.1991 14.5333L17.4657 14.2666ZM37.2658 14.5333L37.5324 14.9333L37.8657 14.5333H37.2658ZM36.9991 15.4L36.5324 15.4667L36.7324 14.9333L36.9991 15.4ZM34.9991 15.8L34.7991 15.6667L34.9991 15.4667V15.8ZM35.0657 17.2667L34.8657 17.1334L35.0657 17V17.2667ZM36.9324 16.1333L37.0657 16.5333L37.3324 16.1333H36.9324ZM37.7324 16.1333L37.4658 15.8L37.9324 15.7333L37.7324 16.1333ZM13.5991 17.9333L13.3991 17.6H13.7991L13.5991 17.9333ZM12.7324 17.1333L12.9991 17.6667L13.3991 17.0667L12.7324 17.1333ZM13.3991 16.6666L12.9324 16.2L13.5991 15.9333L13.3991 16.6666ZM23.3991 14.2L22.7324 14.0666L22.9324 14.8L23.3991 14.2ZM22.3991 14.9333L22.9324 15.0666L22.5324 15.6L22.3991 14.9333ZM29.6658 15.1333L29.0658 15L29.2658 15.6667L29.6658 15.1333Z" fill="#FF593E"/>
<path fill-rule="evenodd" clip-rule="evenodd" d="M20.8662 12.1334L20.4662 12.3334L20.3996 11.9334L20.8662 12.1334ZM19.7329 12.3334L19.9329 12.9334L19.1996 12.8001L19.7329 12.3334ZM19.9329 13.0668L20.3329 13.5334L19.6662 13.7334L19.9329 13.0668ZM19.3995 13.6001L19.7329 13.0668L19.0662 12.9334L19.3995 13.6001ZM21.9328 12.8001L21.5995 12.7334L21.8662 12.4001L21.9328 12.8001ZM20.9995 12.8001L20.4662 12.6001L20.5329 13.2001L20.9995 12.8001ZM22.7995 12.0001L21.9996 12.3334L22.6662 13.0001L22.7995 12.0001ZM12.5995 21.0001V20.7335L12.9328 20.9335L12.5995 21.0001ZM13.1328 17.5334L13.2662 17.8001L13.3995 17.5334H13.1328ZM11.5329 21.6668L11.7996 21.6001L11.7329 21.8668L11.5329 21.6668ZM12.1995 21.2667L12.1329 21.0001L11.9329 21.2667H12.1995ZM12.7995 18.9334L12.1996 18.5334L12.9329 18.1334L12.7995 18.9334ZM14.5995 17.3334L14.8662 17.4001V17.0668L14.5995 17.3334ZM12.4662 16.8667L12.7996 16.3334L13.1996 17.0001L12.4662 16.8667ZM13.6662 18.8668L13.5995 19.3334L14.1329 19.1334L13.6662 18.8668ZM13.7329 16.3334L14.2662 16.4001L13.8662 16.9334L13.7329 16.3334ZM15.1329 17.8001L14.5329 17.8668L14.8662 18.4001L15.1329 17.8001ZM13.7329 17.0667L14.3329 17.0001L14.1329 17.6001L13.7329 17.0667ZM15.7329 15.5334L15.1996 15.6001L15.5329 16.1334L15.7329 15.5334ZM12.7329 18.0001L11.7996 17.8668L12.3996 16.9334L12.7329 18.0001ZM11.0662 20.1334L10.8662 20.9334L11.8662 20.7334L11.0662 20.1334ZM13.4662 19.6667L13.8662 19.5334L13.7996 20.0667L13.4662 19.6667ZM12.1995 20.0001L12.6662 20.1335L12.5995 19.6001L12.1995 20.0001ZM13.2662 21.4001L12.9996 21.5334V21.2668L13.2662 21.4001ZM12.1995 21.8667L11.9995 21.9334L12.1328 22.1334L12.1995 21.8667ZM17.6662 15.9334L17.9995 15.6668L18.0662 16.1334L17.6662 15.9334ZM17.4662 14.9334L17.1329 15.1334L17.5329 15.4001L17.4662 14.9334ZM15.5995 15.1334L16.1328 14.7334L16.2662 15.4668L15.5995 15.1334Z" fill="#FF593E"/>
<path fill-rule="evenodd" clip-rule="evenodd" d="M19.0664 14.4667L18.7997 14.2L19.2664 14.0667L19.0664 14.4667ZM20.133 14.8L19.9997 14.6L20.2663 14.5334L20.133 14.8ZM18.133 14.8L18.3997 14.6V15L18.133 14.8ZM16.733 16L16.9997 15.8L17.0664 16.2L16.733 16ZM17.733 15.6667L17.933 15.8667L18.0664 15.6L17.733 15.6667ZM13.333 18.6L13.133 18.1333L13.733 18.2L13.333 18.6ZM15.1997 17L15.3331 17.2L15.4664 16.9333L15.1997 17ZM19.0664 14.7333L19.1997 14.8667L19.333 14.6667L19.0664 14.7333ZM15.333 16.2667L15.4663 16.4667L15.5997 16.2L15.333 16.2667ZM17.133 15.6667L17.3997 15.4667L17.4663 15.8667L17.133 15.6667ZM16.8663 15.4667L17.0663 15.0667H16.533L16.8663 15.4667ZM16.5997 14.2L16.3997 14.8L15.8664 14.2H16.5997ZM17.9997 15.3334L17.7997 15.2L17.7331 15.4667L17.9997 15.3334ZM17.0664 16.2667L17.2664 16.1333L17.3331 16.4L17.0664 16.2667ZM16.2663 15.9333L16.0663 15.7333L15.9997 16.0667L16.2663 15.9333ZM12.1997 22.3334L11.9997 22.5334L11.933 22.2L12.1997 22.3334ZM11.1331 23.7333L11.2664 23.6L11.0664 23.4667L11.1331 23.7333ZM11.533 22.6L11.333 22.8L11.2664 22.5334L11.533 22.6ZM11.133 24.2L11.333 24.4L11.3997 24.0667L11.133 24.2ZM11.7997 23.3333L11.4663 23.4666V23.1333L11.7997 23.3333Z" fill="#FF593E"/>
<path fill-rule="evenodd" clip-rule="evenodd" d="M14.9996 16.8L14.5996 16.4667L15.1996 16.2L14.9996 16.8ZM11.2663 21.6L10.9329 21.2667L11.4663 21.1333L11.2663 21.6ZM12.4663 23.0667L12.1996 23.2V22.8667L12.4663 23.0667ZM11.1996 21.6667L10.8663 22.2L11.6662 22.2667L11.1996 21.6667ZM10.8662 23.0666V22.4666L11.3329 22.8L10.8662 23.0666ZM11.133 23.8L10.9996 24L11.2663 24.0666L11.133 23.8Z" fill="#FF593E"/>
<path fill-rule="evenodd" clip-rule="evenodd" d="M21.9994 11.8666L21.3994 11.3333L22.1994 11.0667L21.9994 11.8666ZM21.1995 13.6L21.5328 13.7333V13.3333L21.1995 13.6ZM21.5994 13.6666L22.1328 13.8L21.7328 14.2666L21.5994 13.6666ZM14.3994 15.3333L14.6661 14.7333L15.0661 15.4L14.3994 15.3333ZM14.9995 16.2L15.1328 15.9999L15.3328 16.2666L14.9995 16.2ZM14.6661 15.6666L14.4661 16.0666L14.9994 16.1333L14.6661 15.6666ZM16.5328 16.6L16.9994 16.7333L16.6661 17.1333L16.5328 16.6ZM14.7994 16.7333L14.3994 16.6666L14.4661 17.1333L14.7994 16.7333ZM20.5995 13.2666L20.5328 13.8666L21.1328 13.6666L20.5995 13.2666ZM21.1328 12.2667L20.5994 11.8L21.3994 11.5333L21.1328 12.2667ZM18.4661 13.7333L19.1327 13.8666L18.9327 13.1333L18.4661 13.7333ZM20.9995 14L21.3328 14.0667L21.0661 14.3333L20.9995 14Z" fill="#FF593E"/>
<path fill-rule="evenodd" clip-rule="evenodd" d="M21.7328 12.2L21.2662 11.8L21.9328 11.6L21.7328 12.2ZM16.7329 14.2L16.9995 14.7333L17.3995 14.2H16.7329ZM20.4662 15.6L20.6662 15.6667L20.5329 15.9334L20.4662 15.6ZM15.7995 16.6667L15.9995 16.7333L15.8662 17L15.7995 16.6667ZM14.8662 14.6L15.4662 15.1334L15.7329 14.2667L14.8662 14.6ZM17.4662 17.8L17.2662 17.5334L17.5995 17.4L17.4662 17.8ZM21.7328 15.4L21.9995 15.6L22.1328 15.3333L21.7328 15.4ZM19.4662 14.6667L19.2662 14.2667L19.7995 14.3333L19.4662 14.6667ZM19.9329 13.7334L19.6662 14.0667L20.1329 14.1334L19.9329 13.7334ZM19.3996 13.9334L19.1996 13.5334H19.7329L19.3996 13.9334ZM18.5995 13.9333L18.7996 14.3333L19.1329 14L18.5995 13.9333ZM18.5329 15L18.7996 15.0667L18.5996 15.2667L18.5329 15ZM19.8662 15.4L19.5995 15.3333L19.6662 15.6667L19.8662 15.4ZM17.7995 18L17.5995 17.8L17.9328 17.6667L17.7995 18ZM17.5328 16.8667L17.4662 17.0667L17.7328 17.1333L17.5328 16.8667ZM16.1329 16.2L16.2662 16.4667H15.8662L16.1329 16.2Z" fill="#FF593E"/>
<path fill-rule="evenodd" clip-rule="evenodd" d="M15.7324 16.8L15.9991 16.5333L16.0658 17L15.7324 16.8ZM16.5991 18.3334V18L16.9324 18.2L16.5991 18.3334Z" fill="#FF593E"/>
<path fill-rule="evenodd" clip-rule="evenodd" d="M23.8659 14.2L24.4659 14.4L23.9992 14.9333L23.8659 14.2ZM15.7992 16.5333L15.9326 16.7333L16.0659 16.4666L15.7992 16.5333ZM14.3326 17.6667L13.9326 17.9333L14.466 18.1333L14.3326 17.6667ZM15.5992 18.1334L15.3326 17.9334L15.6659 17.8L15.5992 18.1334ZM16.7326 17.2L16.9993 17.4L17.0659 17.0667L16.7326 17.2ZM15.7992 18.8667L15.5992 18.6667L15.9326 18.5333L15.7992 18.8667ZM15.9326 17.1333L15.7992 17.3333H16.1326L15.9326 17.1333ZM19.9993 14.8L19.7326 14.7333L19.7993 15.0667L19.9993 14.8ZM16.2659 17.9333L16.5326 18L16.3326 18.2666L16.2659 17.9333Z" fill="#FF593E"/>
<path fill-rule="evenodd" clip-rule="evenodd" d="M21.667 20.1334L22.0003 20.4001L22.1337 20.0001L21.667 20.1334ZM23.0671 20.4667L23.267 20.2L23.467 20.6L23.0671 20.4667ZM23.867 20.9334L24.1337 20.8001L23.867 20.6001V20.9334ZM25.0004 21.2667L24.7337 21.6L24.5337 21.2L25.0004 21.2667ZM30.0003 22.3334L29.667 22.8001L29.4003 22.2001L30.0003 22.3334ZM30.9337 22.8001L30.3337 22.0001L29.7336 22.8001H30.9337ZM29.467 22.8001L28.667 22.7334L29.267 22.0001L29.467 22.8001ZM23.5337 21.2L23.2003 20.8L23.8004 20.6L23.5337 21.2Z" fill="#AF2500"/>
<path fill-rule="evenodd" clip-rule="evenodd" d="M25.0664 18.7334L24.9331 18.4L24.7998 18.7334H25.0664ZM22.6664 18.8001L22.5331 18.5334L22.3997 18.8001H22.6664ZM28.9998 19.3334L29.2664 19.2L28.9998 19.0667V19.3334ZM21.7998 19.5334L21.9998 19.4L21.7998 19.2V19.5334ZM23.3997 21.4001L23.7997 21.0001L23.9997 21.6667L23.3997 21.4001ZM28.5998 22.0667L28.7998 22.7334L27.9331 22.6667L28.5998 22.0667ZM24.7998 21.9334L24.6665 21.2L24.0665 21.6667L24.7998 21.9334ZM25.9331 21.6L26.1998 22.2667L25.3998 22.1333L25.9331 21.6ZM24.1998 20.9333L24.3331 21.2667L23.9331 21.2L24.1998 20.9333ZM23.2664 19.4667L23.0664 19.2667L23.3331 19.2001L23.2664 19.4667ZM23.8664 19.7334L23.5331 19.6667L23.5997 20.0667L23.8664 19.7334ZM24.6664 19.4667V19.7333L24.3997 19.5333L24.6664 19.4667ZM27.7331 18.8L27.8665 19.0667L27.5998 19.1333L27.7331 18.8ZM25.1331 19.3334L25.3331 19.0667L25.4664 19.4L25.1331 19.3334ZM26.8664 22.4667L27.4664 22.6L27.3331 21.9333L26.8664 22.4667ZM23.5331 20.6L23.8664 20.0667L24.1997 20.6667L23.5331 20.6ZM27.4664 19.9334L27.3998 19.7334L27.1997 19.9334H27.4664ZM29.0664 20.6667L28.7331 21L28.5997 20.5333L29.0664 20.6667ZM27.0664 19.4L27.1997 19.5333L27.2664 19.3333L27.0664 19.4ZM26.6664 18.8667L26.5331 18.8L26.6664 18.6V18.8667ZM29.1998 22.0667L29.3331 21.4L28.5998 21.6L29.1998 22.0667ZM26.8664 22.4001L26.1997 22.3334L26.3331 21.8001L26.7331 21.6667L26.8664 22.4001Z" fill="#AF2500"/>
<path fill-rule="evenodd" clip-rule="evenodd" d="M30.1999 19.9334L30.5999 19.8L30.4665 20.2667L30.1999 19.9334ZM29.5998 20.8668L29.1332 20.6001L29.7332 20.2668L29.5998 20.8668ZM27.2665 21.6001L26.7332 21.8001L26.5998 21.4667L26.8665 21.1334L27.2665 21.6001ZM27.7999 22.6001L27.3999 22.4001L27.9332 21.8001L28.1998 22.5334L27.7999 22.6001ZM27.9332 21.2L28.3998 21.9334L28.7998 21.6667L28.9998 21.2H27.9332ZM29.3331 21.7334L29.7331 22.4668L30.3331 21.7334H29.3331ZM24.7998 21.9334L25.2665 21.4001L25.5331 22.1334L24.7998 21.9334ZM26.1331 20.6667L25.4665 20.8667L25.9332 21.4667L26.1331 20.6667Z" fill="#AF2500"/>
<path fill-rule="evenodd" clip-rule="evenodd" d="M32.7999 20.1334L33.2665 20.0001L33.0665 20.5334L32.7999 20.1334ZM27.7332 22.0667L26.9332 21.8L27.7332 21.1334V22.0667ZM22.5332 20.9334L23.1999 21.2667L23.1332 20.6667L22.5332 20.9334ZM26.7999 20.5333L26.2665 20.7333L26.3999 20.0667L26.7999 20.5333ZM27.8665 20.1333L28.0665 20.3333L28.1999 20.0667L27.8665 20.1333ZM26.9998 20.1334L27.0665 20.4001H26.7332L26.9998 20.1334ZM25.7332 22V21.6667L25.3999 21.7334L25.7332 22ZM24.5998 21.0667L24.4665 20.5334L25.0665 20.6667L24.5998 21.0667Z" fill="#AF2500"/>
<path fill-rule="evenodd" clip-rule="evenodd" d="M26.1335 20.2L26.0002 20.5333L26.3335 20.4667L26.1335 20.2ZM28.1335 21.1334L27.6668 20.8667L28.2001 20.4667L28.1335 21.1334ZM27.4002 21.2L26.9335 20.8667L27.4668 20.5333L27.4002 21.2ZM29.0669 21.5333L29.5335 21.8667L29.6002 21.2L29.0669 21.5333ZM25.2669 21.0666L25.2002 20.8L25.4669 20.8666L25.2669 21.0666ZM26.7335 21.5333L26.1335 21.6L26.2002 20.7333L26.8669 21.2667L26.7335 21.5333Z" fill="#AF2500"/>
<path fill-rule="evenodd" clip-rule="evenodd" d="M35.1328 19.2L34.9995 18.8667L35.3328 18.9334L35.1328 19.2ZM25.7328 19.4L25.9995 19.3333L25.7995 19.0667L25.7328 19.4ZM26.3995 19.4667L26.5328 19.2667L26.3328 19.2L26.3995 19.4667ZM25.7995 19.9334L25.6661 20.1334L25.5328 19.9334H25.7995ZM26.2661 21.5333L26.0661 21.6667V21.4667L26.2661 21.5333ZM24.9328 21.4667L24.7995 21.2667L25.1328 21.2L24.9328 21.4667ZM22.7328 20.0667L22.6661 20.4L22.9995 20.3333L22.7328 20.0667ZM24.4662 20V20.4L24.0662 20.2L24.4662 20ZM28.6662 22.0667L28.2662 21.5334L27.9328 22.2L28.6662 22.0667ZM25.5328 20.6667V21.0001L25.1995 20.8667L25.5328 20.6667ZM22.4662 19.5334L22.5995 19.8001L22.7328 19.4667L22.4662 19.5334ZM30.1995 19.4667L30.0661 19.2H30.3328L30.1995 19.4667ZM26.1995 19.9334L26.1328 19.6667L26.3995 19.7334L26.1995 19.9334ZM22.4661 27.4667L21.5328 27.6667L22.1328 28.5334L22.4661 27.4667ZM29.5995 20.0667H29.2662L29.3995 19.7333L29.5995 20.0667ZM33.0662 21.4L33.7328 21.3333L33.3329 20.7333L33.0662 21.4ZM32.7328 19.1333L32.7994 19.4L32.9994 19.2L32.7328 19.1333ZM19.9995 28.4667L20.3328 29.1334L19.4661 29.0667L19.9995 28.4667ZM31.7328 22.3334L31.8661 21.6667L31.1328 21.8667L31.7328 22.3334ZM30.5995 21.9333L30.5329 22.2667L30.1995 22L30.5995 21.9333ZM30.7328 21.4667L30.8661 21.0667L30.3995 21.2L30.7328 21.4667ZM22.5995 23.6667L22.7995 24.7334L21.7995 24.2L22.5995 23.6667ZM22.5328 23.6L22.2662 22.7333L21.7995 23.4667L22.5328 23.6ZM20.1328 23L20.3328 23.3334H19.8662L20.1328 23ZM21.1995 23L20.9995 22.6667L20.7328 23H21.1995ZM18.7328 28.9334L18.7995 29.5334L18.1328 29.2667L18.7328 28.9334ZM19.0662 29.2L19.3329 29.4L19.3995 29L19.0662 29.2ZM19.3995 28.9334L18.9995 28.6667L19.5328 28.3334L19.3995 28.9334ZM32.3995 20.8L32.5995 20.4H32.0661L32.3995 20.8ZM34.1328 19.1334L34.0661 19.4667L33.7995 19.2001L34.1328 19.1334ZM19.6661 25.7333L19.5328 25.4L19.2661 25.6667L19.6661 25.7333ZM19.3328 23.9334L19.0661 24.0667L19.1328 23.6667L19.3328 23.9334Z" fill="#AF2500"/>
<path fill-rule="evenodd" clip-rule="evenodd" d="M31.1999 20.2668L31.4666 20.5334L31.5999 20.1334L31.1999 20.2668ZM31.8666 20.9335L31.1332 20.6001V21.5335L31.8666 20.9335ZM30.4666 20.8001L30.2666 21.6668L29.4666 21.0668L30.4666 20.8001ZM20.3999 22.3334L20.2666 22.0667L20 22.3334H20.3999ZM21.7332 23.2001L22.0666 23.8667L21.2666 23.8001L21.7332 23.2001ZM20.8666 23.7335L21.1999 24.4001L20.3999 24.2668L20.8666 23.7335ZM32.1332 22.0001L32.7332 22.2668L32.1332 22.7334V22.0001ZM36.1333 21.5334L35.5333 21.2001L35.3999 21.9334L36.1333 21.5334ZM30.9332 21.4668L31.1999 22.0668H30.6666L30.9332 21.4668ZM19.7332 24.0001L19.5332 24.1334L19.7332 24.3334V24.0001ZM20.1999 25.3335L20.3333 25.4668L20.1333 25.5335L20.1999 25.3335ZM17.5333 26.4001L17.6666 26.2001H17.3999L17.5333 26.4001ZM19.0666 22.6001L18.9332 22.8001L18.7999 22.6001H19.0666ZM19.4666 21.6667L19.5999 21.4667L19.3332 21.4001L19.4666 21.6667ZM18.6666 25.7335L18.8666 25.9335L18.5999 26.0668L18.6666 25.7335ZM19.7333 25.0001L19.4666 24.8001L19.3333 25.2001L19.7333 25.0001ZM17.5333 26.7334L17.3999 26.9334L17.2666 26.7334H17.5333ZM19.5999 29.8001L19.8666 30.4001L19.1332 30.3335L19.5999 29.8001ZM21.4666 25.9334L21.1332 25.7334L21.0666 26.2001L21.4666 25.9334ZM21.8 25.7335L22.3333 26.0668L21.7333 26.4001L21.8 25.7335ZM22.5333 27.0001L21.9333 26.8001L22.0666 27.5334L22.5333 27.0001ZM33.6665 22.0668L33.4665 22.3334L33.3332 22.0001L33.6665 22.0668ZM33.8665 22.4668L34.2665 22.3334L33.7332 22.1334L33.8665 22.4668ZM30.9333 21.0001L30.4666 20.8668L30.8666 20.4668L30.9333 21.0001Z" fill="#AF2500"/>
<path fill-rule="evenodd" clip-rule="evenodd" d="M24.5996 20.0001L25.1329 20.2001L25.0663 19.5334L24.5996 20.0001ZM31.1329 19.9334L31.5329 20.0667L31.4662 19.6001L31.1329 19.9334ZM33.8662 22.2L33.4662 21.6667L34.1996 21.6L33.8662 22.2Z" fill="#AF2500"/>
<path fill-rule="evenodd" clip-rule="evenodd" d="M33.9335 20.6667L33.8002 20.4667L33.6668 20.6667H33.9335ZM33.7335 21.8667L34.1335 21.3334L34.4002 22L33.7335 21.8667ZM31.8001 22.2667L32.2001 22.4L31.8668 22.6667L31.8001 22.2667ZM32.7335 22.6667L33.5335 22.5334L33.2669 22L32.7335 22.6667ZM31.8001 22.8H31.0001L31.1335 22L31.8001 22.8ZM20.6668 22.8L20.5335 22.5334L20.2668 22.8H20.6668ZM21.7335 25.8667L21.5335 26V25.6667L21.7335 25.8667ZM20.9335 21.7334L21.1335 21.5334L20.8002 21.4667L20.9335 21.7334ZM20.9335 22.3333L20.7335 22.2L21.0001 22.0667L20.9335 22.3333ZM22.0669 24.6L21.4002 24.4667L21.6669 25.2667L22.0669 24.6ZM20.2668 26.8667L20.6002 26.8L20.4668 27.1334L20.2668 26.8667ZM22.6002 26.8L22.6668 26.1334L21.9335 26.4L22.6002 26.8ZM20.4668 24.5334L20.6668 25.0001L20.0668 24.9334L20.4668 24.5334ZM21.3335 27.4667L21.8002 27.2667L21.4002 26.8L21.3335 27.4667ZM20.3335 26.2667L19.8669 26.6001L19.8002 25.9334L20.3335 26.2667ZM21.0002 26.9334L21.4002 26.6L20.8668 26.3334L21.0002 26.9334ZM20.8668 28.6001L20.4002 28.9334L20.3335 28.2667L20.8668 28.6001ZM22.8001 24.9334L21.8668 25.3334L22.7335 26.0667L22.8001 24.9334ZM21.8668 21.8667L22.2001 22.6667L21.2001 22.6L21.8668 21.8667ZM20.0668 24.5334L20.4001 24.2001L19.9335 24.0001L20.0668 24.5334ZM20.8668 23.4001L21.3335 23.2667L21.2668 23.8667L20.8668 23.4001ZM20.0669 22.6L19.8669 22.3334L19.7335 22.6H20.0669ZM20.6002 21.4667L20.4002 21.6667L20.3335 21.4L20.6002 21.4667ZM17.7335 28.9334L17.9335 28.5334H17.4668L17.7335 28.9334ZM19.4001 29.9334L19.2668 30.2667L19.0001 29.9334H19.4001ZM20.4668 29.8L20.8001 29.2H20.0001L20.4668 29.8ZM18.3335 28.8L18.2001 29.1334L18.0001 28.8H18.3335ZM19.2001 29.2667L19.3335 29H19.0002L19.2001 29.2667ZM19.2001 27.8667L19.4668 28L19.2668 28.2L19.2001 27.8667ZM21.4668 25.3334L21.0002 25L20.8668 25.6L21.4668 25.3334ZM20.0002 27.2667L20.2002 27.4001L20.0002 27.5334V27.2667ZM34.7335 20.4667L34.8669 20.6667H34.6002L34.7335 20.4667ZM35.0668 21.2001L34.8668 20.9334L34.6001 21.2667L35.0668 21.2001ZM20.2001 28L20.4668 28.0667L20.2001 28.2667V28ZM19.0002 29.8L19.1335 29.4667H18.8002L19.0002 29.8ZM19.5335 30.0001L19.4669 29.5334L20.0002 29.7334L19.5335 30.0001Z" fill="#AF2500"/>
<path fill-rule="evenodd" clip-rule="evenodd" d="M20.3329 19.8667L20.5996 19.9334L20.3996 20.1334L20.3329 19.8667ZM21.1329 20.4L21.1996 20.1333L21.3996 20.3333L21.1329 20.4ZM20.2663 20.9333L20.1996 21.2667L20.533 21.2L20.2663 20.9333ZM19.9329 28.6L20.0663 28.8667H19.7996L19.9329 28.6ZM18.7996 29.1333L18.9329 28.9334H18.5996L18.7996 29.1333ZM20.4662 30.2667L20.3329 29.6667L21.0662 29.8667L20.4662 30.2667ZM19.0663 29.9334H18.7996L18.9996 29.6667L19.0663 29.9334ZM20.7996 20.8667L20.733 21.1334L20.9996 21.0667L20.7996 20.8667ZM20.7996 20.4L20.6662 20.6667H20.9996L20.7996 20.4ZM21.533 23L21.6663 22.8L21.8663 23.0667L21.533 23ZM21.733 21.6667L21.333 21.5334L21.3996 22.0667L21.733 21.6667ZM21.4663 20.9333L21.6663 21.6L20.8663 21.4L21.4663 20.9333Z" fill="#AF2500"/>
<path fill-rule="evenodd" clip-rule="evenodd" d="M21.4668 20.4667V20.9334L21.0668 20.6667L21.4668 20.4667ZM20.4668 27.4668L21.0001 27.5335L20.6001 28.0668L20.4668 27.4668Z" fill="#AF2500"/>
<path fill-rule="evenodd" clip-rule="evenodd" d="M33.3331 19.5334L33.5998 19.6V19.3334L33.3331 19.5334ZM32.8665 21.2L32.5998 21.0667L32.7998 20.8L32.8665 21.2ZM32.2665 21.4667L31.7331 21.2667L32.1998 20.8667L32.2665 21.4667ZM20.6665 27.4L21.1332 27.2667L20.7332 26.8667L20.6665 27.4ZM21.3332 27.7334L20.7999 28L21.3332 28.2667V27.7334ZM20.4665 28.0667L20.7332 27.9333V28.2L20.4665 28.0667ZM21.0665 28.7333L21.7332 28.4L21.7998 29.0667L21.0665 28.7333ZM19.2665 28.4001L18.7331 28.5334L18.8664 28.0001L19.2665 28.4001ZM32.7998 21.8L32.3998 21.6V22.0667L32.7998 21.8ZM33.3331 21.4L33.1331 22L32.5998 21.5333L33.3331 21.4ZM35.3331 22L34.7331 21.5333V22.2L35.3331 22ZM19.8665 27.9333L19.5998 28L19.6665 27.7333L19.8665 27.9333ZM20.4665 30.2667L20.0665 29.8001L19.7998 30.4001L20.4665 30.2667ZM20.9332 28.9334L21.7332 29.2001L20.9998 29.8001L20.9332 28.9334ZM18.1331 27.8667L17.7998 27.8L17.9331 28.1334L18.1331 27.8667ZM32.0665 19.4667L32.2665 19.6667L31.9331 19.7334L32.0665 19.4667ZM36.2664 21.4667V20.7333L35.5331 21.1333L36.2664 21.4667ZM35.8665 20.8667L35.2665 20.6667L35.8665 20.2667V20.8667Z" fill="#AF2500"/>
<path fill-rule="evenodd" clip-rule="evenodd" d="M38.6661 18.1334L38.5328 17.9334L38.8661 17.8667L38.6661 18.1334ZM36.6661 18.6667L36.4661 18.4667L36.7327 18.3334L36.6661 18.6667ZM35.3327 20L34.9327 20.2L35.3327 20.5333V20ZM35.9994 20.9334L36.5327 21.1334L36.4661 20.4667L35.9994 20.9334ZM36.0661 20.0001L36.3994 19.8667L36.1327 19.6L36.0661 20.0001ZM36.9327 19.6667L36.5994 19.8667L36.9994 20.0667L36.9327 19.6667ZM38.5327 18.7334L38.3327 19.2L37.9994 18.7334H38.5327ZM36.7327 21L37.3327 20.4L36.3994 20.0667L36.7327 21ZM37.1994 19.5334L37.9994 19.6667L37.3994 20.4L37.1994 19.5334ZM37.7994 19.2667L38.066 19.4667L38.1327 19.0667L37.7994 19.2667ZM36.9328 19.5333L36.4661 19.4667L36.7327 19L36.9328 19.5333ZM37.3994 18.8L37.7994 18.8667L37.5994 18.4001L37.3994 18.8ZM38.4661 18.2L38.7328 18.4L38.3994 18.5333L38.4661 18.2ZM34.5994 21.0667L34.5328 20.6667L34.1328 21L34.5994 21.0667ZM34.1994 21.2667L33.9327 21.6L33.7327 21.1333L34.1994 21.2667ZM34.5994 21.8667L34.4661 21.4667L34.1328 21.7334L34.5994 21.8667ZM35.1327 21.0667L35.1994 21.4667L34.7327 21.4L35.1327 21.0667ZM35.3994 19.5334L35.6661 19.6667V19.3334L35.3994 19.5334ZM34.3994 20L34.1994 19.9334L34.3994 19.6667V20ZM17.7327 27.8L17.3994 27.7333L17.4661 28.0667L17.7327 27.8ZM17.9328 28.5333L18.1994 28.4V28.6667L17.9328 28.5333ZM19.5328 28.4L19.7994 28.5334L19.8661 28.2L19.5328 28.4ZM18.3328 26.8667L18.5328 27.1333L18.1328 27.2L18.3328 26.8667ZM20.3327 28.0667L20.4661 27.7333L20.0661 27.6667L20.3327 28.0667ZM19.666 27.9333L19.9327 28.0667L19.7327 28.2667L19.666 27.9333ZM20.6661 26.3334L20.7994 25.9334L20.3328 26.0001L20.6661 26.3334ZM19.3328 26.5333L19.6661 26.6L19.3994 26.9333L19.3328 26.5333ZM18.7328 27.9333L18.3994 27.8667L18.5328 28.2L18.7328 27.9333ZM18.7327 26.0667L19.0661 26.1333L18.7994 26.4L18.7327 26.0667ZM19.5328 27.6L19.4661 27.4L19.1994 27.5334L19.5328 27.6ZM22.4661 20.8667L21.8661 20.6001L22.3994 20.4001L22.4661 20.8667ZM33.9994 20.4667L34.1994 20.5333V20.2667L33.9994 20.4667ZM18.7994 27.0667L18.5994 27.1334V26.8001L18.7994 27.0667Z" fill="#AF2500"/>
<path d="M35.0002 33.4C33.8002 33.4 32.8002 31.7334 32.8002 29.8667C32.8002 28 33.8002 26.3334 35.0002 26.3334C35.2002 26.3334 35.4669 26.4 35.6669 26.4667V25.7334C35.4669 25.6667 35.2669 25.6 35.0669 25.6C33.4669 25.6 32.2002 27.5334 32.2002 29.8667C32.2002 32.2 33.4669 34.1334 35.0669 34.1334H35.3335L35.4002 33.4667C35.2002 33.3334 35.0669 33.4 35.0002 33.4Z" fill="white"/>
<path d="M37.8669 29.8C37.8669 27.8 36.9335 26.0667 35.6002 25.6667V26.4C36.4669 26.8667 37.1335 28.2 37.1335 29.8C37.1335 31.5334 36.3335 33 35.2669 33.2667L35.2002 33.9334C36.7335 33.8 37.8669 32 37.8669 29.8Z" fill="#CCCCCC"/>
</g>
<defs>
<linearGradient id="paint0_linear_1897_43523" x1="21.262" y1="48.9277" x2="26.8703" y2="44.2639" gradientUnits="userSpaceOnUse">
<stop stop-color="#BC5A32" stop-opacity="0.01"/>
<stop offset="0.99" stop-color="#BC5A32"/>
</linearGradient>
<linearGradient id="paint1_linear_1897_43523" x1="31.178" y1="24.8875" x2="30.1026" y2="18.9914" gradientUnits="userSpaceOnUse">
<stop stop-color="#BC5A32" stop-opacity="0.01"/>
<stop offset="0.99" stop-color="#BC5A32"/>
</linearGradient>
<linearGradient id="paint2_linear_1897_43523" x1="17.3665" y1="34.782" x2="17.6094" y2="31.2313" gradientUnits="userSpaceOnUse">
<stop stop-color="#CC7A5E" stop-opacity="0.01"/>
<stop offset="0.924" stop-color="#AA5F4B"/>
</linearGradient>
</defs>
</svg>
